<?xml version="1.0" encoding="utf-8"?>
<!-- Generator: Adobe Illustrator 26.5.0, SVG Export Plug-In . SVG Version: 6.00 Build 0)  -->
<svg version="1.1" xmlns="http://www.w3.org/2000/svg" xmlns:xlink="http://www.w3.org/1999/xlink" x="0px" y="0px"
	 viewBox="0 0 425.2 283.46" style="enable-background:new 0 0 425.2 283.46;" xml:space="preserve">
<style type="text/css">
	#main{opacity: 0.5;}
	.st0{clip-path:url(#SVGID_00000103979242841814265310000017797018466110165155_);}
	.st1{opacity:0.23;}
	.st2{opacity:0.3;fill:#5499BA;}
	.st3{opacity:0.6;fill:#5499BA;}
	.st4{opacity:0.9;fill:#5499BA;}
	.st5{opacity:0.6;}
	.st6{fill:none;stroke:#FFFFFF;stroke-width:0.25;stroke-miterlimit:10;}
	.st7{opacity:0.4;clip-path:url(#SVGID_00000103979242841814265310000017797018466110165155_);fill:#5499BA;}
	.st8{opacity:0.6;clip-path:url(#SVGID_00000103979242841814265310000017797018466110165155_);fill:#FFFFFF;}
	.st9{clip-path:url(#SVGID_00000103979242841814265310000017797018466110165155_);fill:#5499BA;}
</style>
<g id="main">
	<g>
		<defs>
			<rect id="SVGID_1_" x="0" y="0" width="425.2" height="283.46"/>
		</defs>
		<clipPath id="SVGID_00000050627818742664838330000008526474556421764236_">
			<use xlink:href="#SVGID_1_"  style="overflow:visible;"/>
		</clipPath>
		<g style="clip-path:url(#SVGID_00000050627818742664838330000008526474556421764236_);">
			<g class="st1">
				<polygon class="st2" points="297.4,177.15 290.59,188.95 297.4,200.75 311.02,200.74 317.83,188.95 311.02,177.15 				"/>
				<polygon class="st3" points="317.83,165.36 311.02,177.15 317.83,188.95 331.45,188.95 338.26,177.15 331.45,165.36 				"/>
				<polygon class="st4" points="317.83,188.95 311.02,200.74 317.83,212.54 331.45,212.54 338.26,200.75 331.45,188.95 				"/>
				<polygon class="st4" points="317.83,141.77 311.02,153.56 317.83,165.36 331.45,165.36 338.26,153.56 331.45,141.77 				"/>
				<polygon class="st2" points="358.69,141.77 351.88,153.56 358.69,165.36 372.31,165.36 379.12,153.56 372.31,141.77 				"/>
				<polygon class="st4" points="358.69,118.18 351.88,129.97 358.69,141.77 372.31,141.77 379.12,129.97 372.31,118.17 				"/>
				<polygon class="st3" points="358.69,94.58 351.88,106.38 358.69,118.18 372.31,118.17 379.12,106.38 372.31,94.58 				"/>
				<polygon class="st2" points="338.26,82.79 331.45,94.58 338.26,106.38 351.88,106.38 358.69,94.58 351.88,82.79 				"/>
				<polygon class="st4" points="317.83,94.58 311.02,106.38 317.83,118.17 331.45,118.17 338.26,106.38 331.45,94.58 				"/>
				<polygon class="st3" points="358.69,47.4 351.88,59.2 358.69,70.99 372.31,70.99 379.12,59.2 372.31,47.4 				"/>
				<polygon class="st2" points="379.12,35.61 372.31,47.4 379.12,59.2 392.74,59.2 399.55,47.4 392.74,35.61 				"/>
				<polygon class="st4" points="399.55,0.22 392.74,12.01 399.55,23.81 413.17,23.81 419.99,12.01 413.17,0.22 				"/>
				<polygon class="st4" points="379.12,82.79 372.31,94.58 379.12,106.38 392.74,106.38 399.55,94.58 392.74,82.79 				"/>
				<polygon class="st2" points="379.12,106.38 372.31,118.17 379.12,129.97 392.74,129.97 399.56,118.18 392.74,106.38 				"/>
				<polygon class="st3" points="399.55,70.99 392.74,82.79 399.55,94.58 413.18,94.58 419.99,82.79 413.17,70.99 				"/>
				<polygon class="st2" points="419.99,82.79 413.18,94.58 419.99,106.38 433.61,106.38 440.42,94.58 433.61,82.79 				"/>
				<polygon class="st2" points="419.99,12.01 413.17,23.81 419.99,35.61 433.61,35.61 440.42,23.81 433.61,12.01 				"/>
				<polygon class="st4" points="399.55,47.4 392.74,59.2 399.55,70.99 413.17,70.99 419.99,59.2 413.17,47.4 				"/>
				<polygon class="st2" points="174.82,224.34 168.01,236.13 174.82,247.93 188.44,247.93 195.25,236.13 188.44,224.34 				"/>
				<polygon class="st2" points="195.25,259.72 188.44,271.52 195.25,283.32 208.87,283.31 215.68,271.52 208.87,259.72 				"/>
				<polygon class="st3" points="195.25,236.13 188.44,247.93 195.25,259.72 208.87,259.72 215.68,247.93 208.87,236.13 				"/>
				<polygon class="st3" points="236.11,259.72 229.3,271.52 236.11,283.31 249.73,283.32 256.54,271.52 249.73,259.72 				"/>
				<polygon class="st4" points="215.68,247.93 208.87,259.72 215.68,271.52 229.3,271.52 236.11,259.72 229.3,247.93 				"/>
				<polygon class="st3" points="236.11,212.54 229.3,224.34 236.11,236.13 249.73,236.13 256.54,224.34 249.73,212.54 				"/>
				<polygon class="st4" points="256.54,200.74 249.73,212.54 256.54,224.34 270.16,224.34 276.97,212.54 270.16,200.75 				"/>
				<polygon class="st3" points="276.97,188.95 270.16,200.75 276.97,212.54 290.59,212.54 297.4,200.75 290.59,188.95 				"/>
				<polygon class="st4" points="236.11,165.36 229.3,177.15 236.11,188.95 249.73,188.95 256.54,177.15 249.73,165.36 				"/>
				<polygon class="st4" points="276.97,165.36 270.16,177.15 276.97,188.95 290.59,188.95 297.4,177.15 290.59,165.36 				"/>
				<polygon class="st3" points="276.97,141.77 270.16,153.56 276.97,165.36 290.59,165.36 297.4,153.56 290.59,141.77 				"/>
			</g>
			<g class="st5">
				<polygon class="st6" points="297.4,177.15 290.59,188.95 297.4,200.75 311.02,200.74 317.83,188.95 311.02,177.15 				"/>
				<polygon class="st6" points="317.83,165.36 311.02,177.15 317.83,188.95 331.45,188.95 338.26,177.15 331.45,165.36 				"/>
				<polygon class="st6" points="317.83,188.95 311.02,200.74 317.83,212.54 331.45,212.54 338.26,200.75 331.45,188.95 				"/>
				<polygon class="st6" points="317.83,141.77 311.02,153.56 317.83,165.36 331.45,165.36 338.26,153.56 331.45,141.77 				"/>
				<polygon class="st6" points="338.26,129.97 331.45,141.77 338.26,153.56 351.88,153.56 358.69,141.77 351.88,129.97 				"/>
				<polygon class="st6" points="358.69,141.77 351.88,153.56 358.69,165.36 372.31,165.36 379.12,153.56 372.31,141.77 				"/>
				<polygon class="st6" points="358.69,118.18 351.88,129.97 358.69,141.77 372.31,141.77 379.12,129.97 372.31,118.17 				"/>
				<polygon class="st6" points="358.69,94.58 351.88,106.38 358.69,118.18 372.31,118.17 379.12,106.38 372.31,94.58 				"/>
				<polygon class="st6" points="338.26,82.79 331.45,94.58 338.26,106.38 351.88,106.38 358.69,94.58 351.88,82.79 				"/>
				<polygon class="st6" points="317.83,94.58 311.02,106.38 317.83,118.17 331.45,118.17 338.26,106.38 331.45,94.58 				"/>
				<polygon class="st6" points="358.69,70.99 351.88,82.79 358.69,94.58 372.31,94.58 379.12,82.79 372.31,70.99 				"/>
				<polygon class="st6" points="358.69,47.4 351.88,59.2 358.69,70.99 372.31,70.99 379.12,59.2 372.31,47.4 				"/>
				<polygon class="st6" points="379.12,35.61 372.31,47.4 379.12,59.2 392.74,59.2 399.55,47.4 392.74,35.61 				"/>
				<polygon class="st6" points="399.55,23.81 392.74,35.61 399.55,47.4 413.17,47.4 419.99,35.61 413.17,23.81 				"/>
				<polygon class="st6" points="399.55,0.22 392.74,12.01 399.55,23.81 413.17,23.81 419.99,12.01 413.17,0.22 				"/>
				<polygon class="st6" points="379.12,82.79 372.31,94.58 379.12,106.38 392.74,106.38 399.55,94.58 392.74,82.79 				"/>
				<polygon class="st6" points="379.12,106.38 372.31,118.17 379.12,129.97 392.74,129.97 399.56,118.18 392.74,106.38 				"/>
				<polygon class="st6" points="399.55,70.99 392.74,82.79 399.55,94.58 413.18,94.58 419.99,82.79 413.17,70.99 				"/>
				<polygon class="st6" points="419.99,82.79 413.18,94.58 419.99,106.38 433.61,106.38 440.42,94.58 433.61,82.79 				"/>
				<polygon class="st6" points="419.99,12.01 413.17,23.81 419.99,35.61 433.61,35.61 440.42,23.81 433.61,12.01 				"/>
				<polygon class="st6" points="399.55,47.4 392.74,59.2 399.55,70.99 413.17,70.99 419.99,59.2 413.17,47.4 				"/>
				<polygon class="st6" points="174.82,224.34 168.01,236.13 174.82,247.93 188.44,247.93 195.25,236.13 188.44,224.34 				"/>
				<polygon class="st6" points="195.25,212.54 188.44,224.34 195.25,236.13 208.87,236.13 215.68,224.34 208.87,212.54 				"/>
				<polygon class="st6" points="195.25,259.72 188.44,271.52 195.25,283.32 208.87,283.31 215.68,271.52 208.87,259.72 				"/>
				<polygon class="st6" points="195.25,236.13 188.44,247.93 195.25,259.72 208.87,259.72 215.68,247.93 208.87,236.13 				"/>
				<polygon class="st6" points="236.11,259.72 229.3,271.52 236.11,283.31 249.73,283.32 256.54,271.52 249.73,259.72 				"/>
				<polygon class="st6" points="215.68,247.93 208.87,259.72 215.68,271.52 229.3,271.52 236.11,259.72 229.3,247.93 				"/>
				<polygon class="st6" points="236.11,236.13 229.3,247.93 236.11,259.72 249.73,259.72 256.54,247.93 249.73,236.13 				"/>
				<polygon class="st6" points="236.11,212.54 229.3,224.34 236.11,236.13 249.73,236.13 256.54,224.34 249.73,212.54 				"/>
				<polygon class="st6" points="256.54,200.74 249.73,212.54 256.54,224.34 270.16,224.34 276.97,212.54 270.16,200.75 				"/>
				<polygon class="st6" points="276.97,212.54 270.16,224.34 276.97,236.13 290.59,236.13 297.4,224.34 290.59,212.54 				"/>
				<polygon class="st6" points="276.97,188.95 270.16,200.75 276.97,212.54 290.59,212.54 297.4,200.75 290.59,188.95 				"/>
				<polygon class="st6" points="256.54,177.15 249.73,188.95 256.54,200.74 270.16,200.75 276.97,188.95 270.16,177.15 				"/>
				<polygon class="st6" points="236.11,165.36 229.3,177.15 236.11,188.95 249.73,188.95 256.54,177.15 249.73,165.36 				"/>
				<polygon class="st6" points="276.97,165.36 270.16,177.15 276.97,188.95 290.59,188.95 297.4,177.15 290.59,165.36 				"/>
				<polygon class="st6" points="276.97,141.77 270.16,153.56 276.97,165.36 290.59,165.36 297.4,153.56 290.59,141.77 				"/>
				<polygon class="st6" points="297.4,129.97 290.59,141.77 297.4,153.56 311.02,153.56 317.83,141.77 311.02,129.97 				"/>
			</g>
		</g>
		<path style="opacity:0.4;clip-path:url(#SVGID_00000050627818742664838330000008526474556421764236_);fill:#5499BA;" d="
			M19.86,412.76c0.25-0.24,0.54-0.51,0.89-0.8c0.35-0.3,0.73-0.63,1.16-1c0.45-0.35,0.93-0.74,1.46-1.15
			c0.54-0.41,1.14-0.82,1.77-1.28c0.33-0.21,0.66-0.43,1.01-0.66c0.35-0.22,0.7-0.46,1.09-0.68c3.03-1.81,7.03-3.66,12.02-4.79
			c0.42-0.09,0.85-0.18,1.28-0.27c0.06,0.08,0.14,0.18,0.23,0.31c0.24,0.3,0.58,0.75,1.03,1.29c0.45,0.55,0.99,1.23,1.63,1.98
			c0.64,0.75,1.36,1.61,2.16,2.52c0.8,0.91,1.67,1.91,2.6,2.93c0.94,1.03,1.93,2.11,2.97,3.21c1.04,1.11,2.11,2.25,3.23,3.38
			c1.1,1.14,2.25,2.29,3.38,3.44c1.15,1.14,2.3,2.28,3.44,3.38c1.14,1.11,2.28,2.19,3.38,3.23c1.11,1.04,2.19,2.03,3.22,2.96
			c1.03,0.93,2.02,1.8,2.93,2.6c0.91,0.81,1.76,1.53,2.52,2.16c0.75,0.64,1.42,1.18,1.97,1.64c0.55,0.45,0.99,0.79,1.29,1.03
			c0.13,0.1,0.23,0.18,0.31,0.24c-0.08,0.43-0.17,0.86-0.27,1.28c-1.13,4.99-2.98,9-4.79,12.02c-0.21,0.39-0.45,0.74-0.68,1.09
			c-0.23,0.35-0.45,0.69-0.66,1.01c-0.46,0.63-0.87,1.23-1.28,1.77c-0.42,0.53-0.8,1.02-1.15,1.46c-0.37,0.43-0.7,0.81-1,1.16
			c-0.29,0.35-0.57,0.64-0.81,0.89c-0.24,0.25-0.44,0.46-0.6,0.63c-0.32,0.33-0.48,0.51-0.48,0.51s0.17-0.17,0.49-0.5
			c0.16-0.17,0.36-0.38,0.61-0.62c0.24-0.25,0.52-0.53,0.82-0.88c0.3-0.34,0.64-0.72,1.02-1.15c0.36-0.44,0.75-0.93,1.17-1.45
			c0.41-0.53,0.83-1.13,1.3-1.75c0.22-0.33,0.44-0.66,0.67-1.01c0.23-0.35,0.48-0.7,0.7-1.09c1.85-3.01,3.77-7.01,4.97-12.02
			c0.6-2.5,1.03-5.25,1.25-8.19c0.22-2.94,0.2-6.09,0.02-9.39c-0.2-3.3-0.57-6.78-1.07-10.39c-0.35-2.54-0.75-5.17-1.17-7.86
			c0.82,0.14,1.64,0.27,2.48,0.41c3.93,0.65,8.03,1.29,12.32,1.72c4.29,0.44,8.78,0.66,13.41,0.34c4.62-0.33,9.4-1.24,14-3.08
			c4.61-1.83,8.99-4.59,12.86-8.1c3.85-3.5,7.35-7.71,9.9-12.6c1.28-2.44,2.33-5.04,3.1-7.75c0.78-2.71,1.3-5.52,1.6-8.37
			c0.31-2.86,0.37-5.76,0.29-8.67c-0.09-2.91-0.32-5.85-0.66-8.79c-0.44-3.84-1.03-7.7-1.64-11.59c1.29,0.21,2.59,0.42,3.9,0.63
			c3.02,0.48,6.08,0.92,9.19,1.26c3.11,0.34,6.26,0.56,9.45,0.58c3.19,0.03,6.42-0.18,9.64-0.68c1.61-0.28,3.22-0.58,4.8-1.03
			c0.8-0.19,1.58-0.47,2.37-0.71c0.39-0.13,0.78-0.28,1.17-0.41c0.39-0.14,0.78-0.28,1.16-0.44c3.08-1.23,6.05-2.83,8.78-4.8
			l1.02-0.74l0.99-0.78c0.67-0.51,1.3-1.08,1.95-1.64c0.33-0.28,0.63-0.56,0.93-0.85l0.9-0.86c0.06-0.06,0.17-0.16,0.24-0.23
			l0.22-0.23l0.44-0.46l0.88-0.92c2.29-2.51,4.34-5.28,6.05-8.29c1.67-3.02,3.02-6.26,3.92-9.63c0.93-3.37,1.42-6.85,1.63-10.35
			c0.11-1.75,0.12-3.5,0.1-5.26c-0.05-1.75-0.13-3.5-0.27-5.26c-0.42-5.23-1.21-10.43-2.03-15.63c0.72,0.11,1.44,0.23,2.16,0.34
			c6.99,1.1,14.15,2.12,21.48,2.02c0.92,0,1.83-0.05,2.75-0.09c0.91-0.07,1.83-0.12,2.75-0.23c0.92-0.09,1.83-0.23,2.75-0.36
			c0.91-0.17,1.82-0.31,2.73-0.53c0.91-0.18,1.81-0.44,2.71-0.68c0.89-0.28,1.79-0.53,2.66-0.86c0.89-0.3,1.75-0.67,2.61-1.03
			c0.43-0.18,0.85-0.39,1.28-0.59l0.63-0.3l0.62-0.33c1.68-0.85,3.27-1.85,4.81-2.92l1.14-0.83c0.38-0.27,0.74-0.58,1.11-0.86
			c0.74-0.57,1.44-1.2,2.15-1.82c0.36-0.3,0.68-0.64,1.03-0.96l0.51-0.49l0.25-0.24c0.08-0.08,0.2-0.2,0.27-0.27l0.95-0.99
			c0.16-0.17,0.32-0.33,0.48-0.5l0.47-0.54l0.95-1.08l0.89-1.1l0.44-0.55l0.42-0.57l0.83-1.15c1.06-1.57,2.05-3.19,2.91-4.9
			c0.85-1.71,1.61-3.45,2.22-5.26c0.61-1.81,1.12-3.65,1.51-5.51c0.37-1.87,0.65-3.75,0.83-5.64c0.17-1.89,0.25-3.79,0.26-5.68
			c0-1.89-0.07-3.78-0.19-5.67c-0.25-3.77-0.72-7.51-1.26-11.24c-0.27-1.85-0.56-3.69-0.85-5.53c4.4,0.71,8.84,1.39,13.34,1.84
			c1.89,0.19,3.79,0.33,5.7,0.42c1.91,0.08,3.83,0.09,5.75,0.03c3.84-0.14,7.7-0.62,11.45-1.61c0.94-0.24,1.87-0.54,2.79-0.83
			c0.91-0.33,1.84-0.64,2.73-1.03c0.91-0.35,1.77-0.79,2.66-1.2c0.86-0.46,1.73-0.89,2.56-1.4c0.85-0.48,1.65-1.03,2.47-1.56
			c0.4-0.28,0.79-0.57,1.18-0.85l0.59-0.43l0.57-0.45l1.14-0.91l1.11-0.97l0.55-0.49l0.51-0.49l1.02-0.98l1.03-1.07l0.5-0.52
			c0.17-0.18,0.32-0.36,0.48-0.55l0.96-1.09l0.91-1.14l0.45-0.57l0.43-0.59c0.29-0.39,0.57-0.78,0.85-1.18
			c0.53-0.81,1.08-1.62,1.56-2.47c0.51-0.83,0.95-1.7,1.4-2.56c0.41-0.88,0.85-1.75,1.2-2.66c0.39-0.89,0.7-1.81,1.03-2.73
			c0.29-0.93,0.59-1.85,0.83-2.79c1-3.75,1.47-7.62,1.62-11.45c0.07-1.92,0.05-3.84-0.03-5.75c-0.09-1.91-0.23-3.81-0.41-5.7
			c-0.45-4.5-1.13-8.93-1.84-13.33c1.84,0.3,3.68,0.58,5.52,0.85c3.72,0.54,7.46,1.01,11.23,1.26c1.89,0.12,3.78,0.2,5.67,0.19
			c1.9-0.01,3.79-0.09,5.68-0.25c1.89-0.19,3.78-0.46,5.65-0.83c1.87-0.39,3.71-0.9,5.51-1.51c1.81-0.61,3.56-1.38,5.26-2.22
			c1.7-0.86,3.33-1.85,4.9-2.91l1.15-0.83l0.58-0.42l0.55-0.44l1.1-0.89l1.06-0.93l0.53-0.47c0.17-0.16,0.34-0.32,0.51-0.49
			l1.01-0.98c0.07-0.07,0.19-0.19,0.27-0.27l0.24-0.25l0.47-0.5c0.32-0.34,0.63-0.65,0.95-1.02c0.62-0.72,1.26-1.43,1.83-2.17
			c0.29-0.37,0.59-0.73,0.87-1.11l0.82-1.14c1.07-1.55,2.07-3.14,2.92-4.81l0.33-0.62l0.3-0.64c0.2-0.43,0.41-0.85,0.59-1.27
			c0.36-0.87,0.72-1.73,1.03-2.61c0.33-0.87,0.58-1.77,0.86-2.66c0.24-0.9,0.49-1.8,0.68-2.71c0.21-0.9,0.36-1.82,0.53-2.73
			c0.13-0.92,0.27-1.83,0.36-2.75c0.11-0.92,0.16-1.83,0.23-2.75c0.04-0.91,0.09-1.83,0.09-2.74c0.1-7.32-0.92-14.48-2.02-21.48
			c-0.11-0.72-0.23-1.44-0.35-2.16c5.2,0.82,10.4,1.62,15.64,2.03c1.75,0.14,3.51,0.22,5.26,0.27c1.75,0.02,3.51,0.01,5.26-0.1
			c3.5-0.21,6.98-0.7,10.35-1.63c3.38-0.89,6.61-2.24,9.63-3.91c1.49-0.87,2.96-1.77,4.33-2.81c1.39-1,2.69-2.11,3.98-3.26
			c4.95-4.56,9.07-10.14,11.5-16.33c0.16-0.38,0.3-0.77,0.44-1.16c0.14-0.39,0.28-0.78,0.42-1.17c0.24-0.79,0.51-1.57,0.71-2.37
			c0.45-1.59,0.75-3.2,1.03-4.8c0.5-3.22,0.71-6.45,0.68-9.64c-0.03-3.19-0.25-6.35-0.58-9.45c-0.34-3.11-0.78-6.17-1.26-9.19
			c-0.21-1.31-0.42-2.61-0.63-3.9c3.89,0.61,7.75,1.2,11.59,1.64c2.94,0.34,5.87,0.57,8.79,0.65c2.92,0.08,5.82,0.02,8.67-0.29
			c2.85-0.3,5.66-0.82,8.37-1.6c2.71-0.77,5.31-1.83,7.75-3.1c4.89-2.55,9.1-6.05,12.59-9.89c3.53-3.89,6.28-8.26,8.11-12.88
			c1.84-4.61,2.75-9.38,3.08-14.01c0.32-4.63,0.1-9.12-0.33-13.41c-0.44-4.29-1.08-8.4-1.72-12.32c-0.14-0.84-0.27-1.66-0.41-2.48
			c2.7,0.42,5.32,0.82,7.86,1.17c3.62,0.5,7.09,0.87,10.39,1.07c3.3,0.18,6.45,0.2,9.39-0.02c2.94-0.21,5.69-0.64,8.19-1.24
			c5.02-1.2,9.01-3.11,12.03-4.97c0.39-0.22,0.74-0.47,1.09-0.7c0.35-0.23,0.68-0.46,1.01-0.67c0.63-0.47,1.22-0.89,1.75-1.3
			c0.53-0.42,1.01-0.82,1.45-1.17c0.42-0.38,0.8-0.72,1.15-1.02c0.35-0.3,0.64-0.58,0.88-0.82c0.25-0.24,0.46-0.44,0.62-0.6
			c0.33-0.32,0.5-0.49,0.5-0.49s-0.17,0.16-0.51,0.48c-0.17,0.16-0.38,0.36-0.63,0.6c-0.25,0.24-0.54,0.51-0.89,0.81
			c-0.35,0.3-0.73,0.63-1.16,1c-0.45,0.35-0.93,0.73-1.46,1.15c-0.54,0.41-1.13,0.82-1.77,1.28c-0.33,0.21-0.67,0.43-1.01,0.66
			c-0.35,0.22-0.71,0.46-1.09,0.68c-3.03,1.81-7.03,3.66-12.03,4.78c-0.41,0.09-0.83,0.18-1.25,0.26c-0.06-0.08-0.14-0.18-0.24-0.31
			c-0.24-0.3-0.58-0.74-1.03-1.29c-0.45-0.55-0.99-1.22-1.64-1.97c-0.63-0.75-1.36-1.61-2.16-2.52c-0.8-0.91-1.67-1.91-2.6-2.93
			c-0.93-1.03-1.93-2.11-2.97-3.22c-1.04-1.11-2.12-2.24-3.23-3.38c-1.1-1.14-2.25-2.29-3.38-3.44c-1.15-1.14-2.3-2.28-3.44-3.38
			c-1.14-1.11-2.28-2.19-3.38-3.23c-1.11-1.04-2.19-2.03-3.22-2.97c-1.03-0.94-2.02-1.81-2.93-2.6c-0.91-0.81-1.76-1.53-2.52-2.16
			c-0.75-0.64-1.42-1.18-1.98-1.63c-0.55-0.45-0.99-0.79-1.29-1.03c-0.13-0.1-0.24-0.18-0.31-0.24c0.09-0.42,0.17-0.84,0.26-1.26
			c1.13-4.99,2.98-9,4.79-12.02c0.21-0.39,0.46-0.74,0.68-1.09c0.23-0.35,0.45-0.69,0.66-1.01c0.46-0.63,0.87-1.23,1.27-1.77
			c0.42-0.53,0.8-1.02,1.15-1.46c0.37-0.43,0.7-0.81,1-1.16c0.29-0.35,0.57-0.64,0.81-0.89c0.24-0.25,0.44-0.46,0.6-0.63
			c0.32-0.34,0.48-0.51,0.48-0.51s-0.16,0.17-0.49,0.5c-0.16,0.17-0.36,0.37-0.6,0.62c-0.24,0.25-0.52,0.54-0.82,0.88
			c-0.3,0.34-0.64,0.73-1.02,1.15c-0.36,0.44-0.75,0.92-1.17,1.45c-0.41,0.53-0.84,1.13-1.3,1.75c-0.22,0.32-0.44,0.66-0.67,1.01
			c-0.23,0.35-0.48,0.7-0.7,1.09c-1.85,3.01-3.77,7.01-4.97,12.03c-0.6,2.5-1.03,5.24-1.24,8.19c-0.21,2.94-0.19,6.09-0.01,9.39
			c0.2,3.31,0.57,6.78,1.07,10.4c0.34,2.54,0.75,5.16,1.16,7.86c-0.82-0.14-1.64-0.27-2.47-0.41c-3.93-0.64-8.03-1.29-12.32-1.72
			c-4.29-0.44-8.78-0.66-13.41-0.33c-4.62,0.32-9.4,1.24-14,3.08c-4.61,1.83-8.99,4.59-12.87,8.1c-3.85,3.5-7.35,7.71-9.9,12.6
			c-1.27,2.44-2.33,5.04-3.1,7.75c-0.78,2.71-1.3,5.52-1.6,8.37c-0.31,2.85-0.37,5.76-0.29,8.67c0.08,2.92,0.32,5.85,0.66,8.79
			c0.43,3.84,1.03,7.7,1.64,11.59c-1.3-0.21-2.6-0.43-3.9-0.63c-3.02-0.48-6.08-0.92-9.19-1.25c-3.11-0.34-6.26-0.56-9.45-0.58
			c-3.19-0.04-6.42,0.18-9.65,0.68c-1.61,0.28-3.22,0.58-4.8,1.03c-0.8,0.2-1.58,0.47-2.37,0.71c-0.39,0.13-0.78,0.28-1.17,0.42
			c-0.39,0.14-0.78,0.28-1.16,0.44c-3.08,1.24-6.05,2.84-8.78,4.8l-1.03,0.74l-0.99,0.78c-0.67,0.51-1.3,1.08-1.95,1.64
			c-0.33,0.28-0.63,0.56-0.92,0.85l-0.9,0.86c-0.06,0.06-0.17,0.16-0.24,0.23l-0.22,0.23l-0.44,0.46l-0.88,0.92
			c-2.29,2.51-4.34,5.28-6.05,8.29c-1.67,3.02-3.02,6.26-3.91,9.63c-0.92,3.37-1.42,6.85-1.63,10.35c-0.1,1.75-0.12,3.5-0.09,5.26
			c0.05,1.75,0.13,3.51,0.27,5.26c0.42,5.23,1.21,10.43,2.03,15.63c-0.72-0.12-1.44-0.23-2.16-0.35c-7-1.1-14.16-2.13-21.48-2.02
			c-0.91,0-1.83,0.05-2.75,0.09c-0.91,0.07-1.83,0.12-2.75,0.23c-0.92,0.09-1.84,0.23-2.75,0.36c-0.91,0.17-1.83,0.31-2.73,0.53
			c-0.91,0.18-1.81,0.44-2.71,0.68c-0.89,0.28-1.79,0.53-2.66,0.86c-0.88,0.3-1.74,0.67-2.61,1.03c-0.43,0.19-0.85,0.39-1.27,0.59
			l-0.63,0.3l-0.62,0.32c-1.67,0.85-3.27,1.85-4.81,2.92l-1.14,0.83c-0.38,0.27-0.74,0.58-1.11,0.87c-0.75,0.57-1.44,1.2-2.15,1.82
			c-0.36,0.3-0.69,0.64-1.03,0.96l-0.51,0.49l-0.25,0.24c-0.08,0.08-0.2,0.2-0.27,0.27l-0.95,0.99c-0.16,0.17-0.32,0.33-0.48,0.5
			l-0.47,0.54l-0.95,1.08l-0.88,1.11l-0.44,0.55l-0.42,0.58l-0.84,1.15c-1.06,1.57-2.05,3.2-2.91,4.9
			c-0.84,1.71-1.61,3.46-2.22,5.26c-0.61,1.81-1.12,3.65-1.5,5.51c-0.38,1.87-0.65,3.75-0.83,5.64c-0.17,1.89-0.25,3.79-0.26,5.69
			c0,1.89,0.07,3.78,0.19,5.67c0.25,3.77,0.72,7.51,1.26,11.23c0.27,1.85,0.56,3.69,0.86,5.53c-4.41-0.71-8.84-1.4-13.33-1.84
			c-1.89-0.19-3.79-0.33-5.7-0.41c-1.91-0.08-3.83-0.09-5.75-0.03c-3.84,0.14-7.7,0.62-11.46,1.62c-0.94,0.23-1.87,0.54-2.79,0.83
			c-0.91,0.33-1.83,0.64-2.73,1.03c-0.91,0.35-1.78,0.79-2.66,1.2c-0.86,0.46-1.73,0.89-2.56,1.4c-0.85,0.48-1.65,1.03-2.47,1.56
			c-0.4,0.28-0.79,0.57-1.18,0.85l-0.59,0.43l-0.57,0.45l-1.14,0.91l-1.11,0.97l-0.55,0.48l-0.51,0.49l-1.02,0.98l-1.02,1.07
			l-0.5,0.53c-0.17,0.18-0.32,0.36-0.48,0.54l-0.96,1.09l-0.91,1.14l-0.46,0.57l-0.43,0.59c-0.29,0.39-0.58,0.79-0.85,1.19
			c-0.53,0.81-1.08,1.62-1.56,2.46c-0.51,0.83-0.95,1.7-1.41,2.56c-0.41,0.88-0.85,1.75-1.2,2.66c-0.39,0.89-0.7,1.81-1.03,2.73
			c-0.29,0.93-0.6,1.85-0.83,2.79c-1,3.75-1.48,7.62-1.62,11.45c-0.06,1.92-0.05,3.84,0.03,5.75c0.09,1.91,0.23,3.81,0.41,5.7
			c0.45,4.49,1.14,8.92,1.85,13.32c-1.84-0.29-3.68-0.58-5.53-0.85c-3.72-0.54-7.46-1.01-11.23-1.26c-1.88-0.12-3.78-0.2-5.67-0.19
			c-1.9,0.01-3.79,0.09-5.68,0.26c-1.89,0.18-3.78,0.46-5.64,0.83c-1.87,0.38-3.71,0.89-5.52,1.51c-1.8,0.62-3.55,1.38-5.26,2.22
			c-1.7,0.86-3.33,1.85-4.9,2.9l-1.15,0.83l-0.57,0.42l-0.55,0.44l-1.11,0.89l-1.07,0.93l-0.53,0.46c-0.17,0.16-0.34,0.33-0.51,0.49
			l-1.02,0.98c-0.07,0.06-0.2,0.19-0.27,0.27l-0.24,0.25l-0.47,0.5c-0.32,0.34-0.64,0.64-0.95,1.01c-0.62,0.72-1.26,1.43-1.84,2.17
			c-0.29,0.37-0.59,0.73-0.86,1.11l-0.83,1.14c-1.06,1.55-2.07,3.14-2.92,4.81l-0.33,0.62l-0.3,0.64c-0.19,0.43-0.4,0.85-0.59,1.28
			c-0.36,0.86-0.73,1.73-1.03,2.61c-0.33,0.88-0.59,1.77-0.86,2.66c-0.24,0.9-0.49,1.8-0.68,2.71c-0.21,0.91-0.36,1.82-0.52,2.73
			c-0.13,0.91-0.27,1.83-0.36,2.75c-0.11,0.91-0.16,1.83-0.23,2.75c-0.04,0.92-0.09,1.83-0.09,2.75c-0.1,7.32,0.92,14.48,2.02,21.48
			c0.11,0.72,0.23,1.45,0.35,2.17c-5.2-0.83-10.4-1.62-15.64-2.03c-1.75-0.14-3.5-0.22-5.26-0.27c-1.75-0.02-3.51-0.01-5.26,0.09
			c-3.5,0.21-6.98,0.7-10.35,1.63c-3.38,0.89-6.61,2.24-9.63,3.91c-1.49,0.87-2.96,1.77-4.33,2.81c-1.39,1-2.69,2.11-3.98,3.26
			c-4.95,4.56-9.07,10.14-11.5,16.33c-0.17,0.38-0.3,0.77-0.44,1.16c-0.14,0.39-0.29,0.78-0.42,1.17c-0.24,0.79-0.51,1.57-0.7,2.37
			c-0.45,1.58-0.75,3.2-1.03,4.8c-0.49,3.22-0.71,6.45-0.68,9.65c0.02,3.19,0.24,6.35,0.58,9.45c0.33,3.1,0.78,6.17,1.26,9.18
			c0.21,1.31,0.42,2.61,0.63,3.9c-3.89-0.61-7.75-1.2-11.59-1.64c-2.94-0.33-5.87-0.57-8.79-0.65c-2.91-0.08-5.81-0.02-8.67,0.29
			c-2.85,0.3-5.66,0.82-8.37,1.6c-2.71,0.77-5.31,1.83-7.75,3.1c-4.89,2.55-9.1,6.05-12.59,9.89c-3.52,3.89-6.28,8.26-8.11,12.88
			c-1.84,4.61-2.76,9.38-3.08,14c-0.32,4.63-0.1,9.12,0.34,13.41c0.44,4.29,1.07,8.4,1.72,12.33c0.14,0.83,0.27,1.66,0.41,2.48
			c-2.69-0.42-5.31-0.83-7.86-1.17c-3.62-0.5-7.09-0.87-10.4-1.07c-3.31-0.18-6.45-0.2-9.39,0.01c-2.94,0.22-5.69,0.64-8.19,1.24
			c-5.01,1.2-9.02,3.12-12.03,4.97c-0.38,0.22-0.74,0.46-1.09,0.7c-0.34,0.23-0.68,0.45-1.01,0.67c-0.63,0.47-1.22,0.89-1.75,1.3
			c-0.53,0.42-1.01,0.81-1.45,1.17c-0.42,0.38-0.81,0.72-1.15,1.02c-0.35,0.3-0.64,0.58-0.88,0.82c-0.25,0.24-0.46,0.44-0.62,0.6
			c-0.33,0.32-0.51,0.49-0.51,0.49s0.18-0.16,0.51-0.48C19.4,413.2,19.61,413,19.86,412.76z M544.07-74.44
			c-0.54-3.6-0.94-7.05-1.17-10.34c-0.22-3.29-0.27-6.41-0.09-9.33c0.15-2.42,0.44-4.7,0.86-6.83c0.05,0.08,0.13,0.17,0.22,0.28
			c0.24,0.3,0.58,0.75,1.03,1.3c0.45,0.55,0.99,1.22,1.64,1.97c0.64,0.76,1.36,1.61,2.16,2.52c0.8,0.92,1.67,1.91,2.6,2.94
			c0.94,1.03,1.93,2.11,2.97,3.22c1.04,1.1,2.12,2.24,3.23,3.38c1.1,1.14,2.24,2.29,3.38,3.44c1.15,1.14,2.29,2.28,3.44,3.38
			c1.14,1.11,2.28,2.19,3.38,3.23c1.11,1.04,2.19,2.03,3.22,2.97c1.03,0.93,2.02,1.8,2.94,2.6c0.91,0.81,1.76,1.53,2.52,2.16
			c0.75,0.64,1.43,1.19,1.98,1.64c0.55,0.45,0.99,0.79,1.29,1.03c0.12,0.09,0.21,0.16,0.29,0.22c-2.13,0.42-4.41,0.71-6.83,0.86
			c-2.93,0.18-6.05,0.13-9.33-0.09c-3.29-0.23-6.74-0.64-10.34-1.18c-2.61-0.38-5.29-0.83-8.07-1.29
			C544.9-69.14,544.45-71.83,544.07-74.44z M529.72-67.75c4.27,0.4,8.36,0.99,12.29,1.59c0.91,0.14,1.81,0.28,2.71,0.42
			c0.14,0.89,0.28,1.8,0.42,2.71c0.6,3.93,1.2,8.03,1.59,12.29c0.39,4.26,0.57,8.7,0.21,13.25c-0.15,1.96-0.43,3.95-0.82,5.93
			c-0.23-0.29-0.54-0.7-0.95-1.19c-0.45-0.55-0.99-1.22-1.63-1.97c-0.63-0.75-1.35-1.61-2.16-2.52c-0.8-0.92-1.67-1.91-2.61-2.94
			c-0.93-1.03-1.93-2.11-2.96-3.21c-1.04-1.11-2.12-2.24-3.23-3.38c-1.1-1.15-2.24-2.29-3.38-3.44c-1.15-1.14-2.29-2.28-3.44-3.39
			c-1.14-1.11-2.28-2.19-3.38-3.23c-1.11-1.04-2.19-2.03-3.22-2.97c-1.03-0.94-2.02-1.8-2.93-2.6c-0.91-0.81-1.76-1.53-2.52-2.16
			c-0.75-0.64-1.43-1.18-1.98-1.63c-0.49-0.41-0.89-0.72-1.19-0.95c1.98-0.4,3.96-0.67,5.93-0.82
			C521.02-68.32,525.46-68.15,529.72-67.75z M490.38-56.85c3.74-3.45,7.97-6.17,12.44-7.99c2.47-1.01,5-1.74,7.53-2.26
			c0.24,0.3,0.57,0.74,1.02,1.28c0.45,0.55,0.99,1.22,1.63,1.98c0.64,0.76,1.36,1.61,2.16,2.52c0.8,0.91,1.67,1.91,2.6,2.93
			c0.94,1.03,1.93,2.11,2.97,3.22c1.04,1.1,2.11,2.24,3.23,3.38c1.1,1.15,2.24,2.29,3.38,3.44c1.15,1.14,2.29,2.28,3.44,3.38
			c1.14,1.11,2.28,2.19,3.38,3.23c1.11,1.04,2.19,2.03,3.22,2.97c1.03,0.94,2.02,1.8,2.94,2.6c0.91,0.81,1.76,1.53,2.51,2.16
			c0.75,0.64,1.43,1.18,1.97,1.63c0.54,0.44,0.98,0.78,1.27,1.02c-0.52,2.53-1.25,5.07-2.26,7.54c-1.81,4.46-4.54,8.7-7.98,12.43
			c-0.44,0.47-0.9,0.93-1.34,1.4c-0.06,0.07-0.13,0.13-0.19,0.2c-0.02-0.02-0.04-0.04-0.06-0.07c-0.31-0.37-0.75-0.92-1.34-1.6
			c-0.59-0.68-1.29-1.52-2.12-2.46c-0.82-0.94-1.76-2.01-2.79-3.15c-1.03-1.15-2.15-2.39-3.35-3.68c-1.2-1.29-2.47-2.66-3.8-4.05
			c-1.33-1.4-2.7-2.83-4.12-4.27c-1.41-1.45-2.86-2.9-4.3-4.36c-1.46-1.45-2.91-2.89-4.36-4.3c-1.44-1.42-2.88-2.79-4.27-4.12
			c-1.4-1.33-2.75-2.6-4.05-3.8c-1.29-1.2-2.53-2.32-3.68-3.35c-1.14-1.04-2.2-1.97-3.15-2.79c-0.94-0.83-1.77-1.53-2.46-2.12
			c-0.68-0.59-1.24-1.03-1.61-1.34c-0.02-0.02-0.04-0.04-0.07-0.06C489.32-55.84,489.84-56.35,490.38-56.85z M477.91-37.04
			c0.73-2.62,1.73-5.14,2.95-7.51c1.22-2.37,2.66-4.58,4.27-6.63c1.11-1.42,2.32-2.77,3.57-4.04c0.02,0.02,0.04,0.04,0.05,0.07
			c0.31,0.37,0.75,0.92,1.34,1.61c0.58,0.68,1.29,1.52,2.12,2.46c0.83,0.95,1.75,2.01,2.79,3.15c1.03,1.15,2.15,2.39,3.35,3.68
			c1.2,1.29,2.47,2.65,3.79,4.05c1.33,1.39,2.7,2.83,4.12,4.27c1.41,1.45,2.86,2.9,4.3,4.36c1.46,1.44,2.91,2.89,4.36,4.3
			c1.44,1.42,2.88,2.79,4.27,4.12c1.39,1.33,2.75,2.6,4.04,3.8c1.3,1.2,2.54,2.32,3.68,3.35c1.14,1.04,2.2,1.97,3.15,2.79
			c0.94,0.83,1.77,1.54,2.46,2.12c0.68,0.59,1.24,1.03,1.61,1.34c0.02,0.02,0.05,0.04,0.07,0.06c-0.36,0.35-0.74,0.69-1.1,1.04
			c-0.46,0.46-0.96,0.86-1.45,1.29c-0.48,0.44-0.99,0.84-1.51,1.24c-2.05,1.61-4.26,3.05-6.63,4.27c-2.37,1.21-4.88,2.22-7.51,2.95
			c-1.15,0.32-2.32,0.59-3.51,0.82c-0.23-0.29-0.51-0.66-0.88-1.1c-0.45-0.55-0.99-1.22-1.63-1.97c-0.64-0.75-1.35-1.61-2.16-2.52
			c-0.8-0.92-1.67-1.91-2.6-2.94c-0.94-1.03-1.93-2.11-2.97-3.21c-1.04-1.11-2.11-2.24-3.23-3.38c-1.1-1.15-2.25-2.29-3.38-3.44
			c-1.15-1.14-2.3-2.28-3.44-3.38c-1.14-1.11-2.28-2.19-3.38-3.23c-1.11-1.04-2.19-2.03-3.22-2.97c-1.03-0.93-2.02-1.8-2.93-2.6
			c-0.91-0.81-1.76-1.53-2.52-2.16c-0.75-0.64-1.42-1.18-1.98-1.63c-0.44-0.37-0.82-0.66-1.11-0.88
			C477.32-34.72,477.59-35.89,477.91-37.04z M476.91-11.79c-0.7-5.81-1.03-11.56-0.48-17.12c0.14-1.47,0.35-2.92,0.62-4.35
			c0.21,0.27,0.47,0.6,0.79,0.98c0.45,0.55,0.99,1.22,1.63,1.98c0.64,0.76,1.36,1.61,2.16,2.52c0.8,0.92,1.67,1.91,2.6,2.94
			c0.93,1.03,1.92,2.11,2.97,3.22c1.04,1.1,2.12,2.24,3.23,3.38c1.11,1.15,2.25,2.29,3.38,3.44c1.15,1.14,2.3,2.28,3.44,3.38
			c1.14,1.11,2.28,2.19,3.38,3.23c1.1,1.04,2.19,2.03,3.22,2.97c1.03,0.94,2.02,1.8,2.93,2.6c0.91,0.81,1.76,1.53,2.52,2.16
			c0.75,0.64,1.42,1.18,1.97,1.63c0.39,0.32,0.72,0.58,0.98,0.79c-1.43,0.27-2.88,0.47-4.35,0.62c-5.56,0.55-11.31,0.21-17.12-0.48
			c-3.98-0.48-8-1.13-12.07-1.8C478.04-3.8,477.39-7.81,476.91-11.79z M454.38-0.62c6.22,0.01,12.36,0.82,18.38,1.71
			c1.49,0.23,2.97,0.46,4.45,0.69c0.23,1.48,0.46,2.96,0.68,4.45c0.46,3.01,0.87,6.05,1.19,9.11c0.32,3.06,0.52,6.16,0.53,9.27
			c0.02,3.11-0.21,6.24-0.7,9.33c-0.07,0.38-0.14,0.76-0.21,1.14c-0.17-0.22-0.37-0.47-0.61-0.75c-0.45-0.55-0.99-1.22-1.63-1.97
			c-0.64-0.76-1.35-1.61-2.16-2.52c-0.8-0.92-1.67-1.91-2.6-2.94c-0.94-1.03-1.93-2.11-2.96-3.21c-1.04-1.11-2.12-2.24-3.23-3.38
			c-1.1-1.15-2.24-2.29-3.38-3.44c-1.15-1.14-2.29-2.28-3.44-3.39c-1.14-1.11-2.28-2.19-3.38-3.22c-1.11-1.04-2.19-2.03-3.22-2.97
			c-1.03-0.93-2.02-1.8-2.93-2.6c-0.91-0.81-1.76-1.53-2.52-2.16c-0.75-0.64-1.43-1.18-1.97-1.63c-0.28-0.23-0.53-0.43-0.74-0.6
			c0.38-0.07,0.76-0.14,1.13-0.21C448.14-0.41,451.27-0.64,454.38-0.62z M422.98,11.07c0.3-0.29,0.59-0.58,0.9-0.83
			c0.6-0.53,1.19-1.07,1.83-1.56l0.94-0.75l0.97-0.71c2.6-1.89,5.41-3.42,8.34-4.62c0.36-0.16,0.73-0.29,1.11-0.43
			c0.37-0.13,0.74-0.27,1.11-0.4c0.76-0.23,1.5-0.49,2.26-0.68c1.03-0.29,2.07-0.53,3.12-0.73c0.2,0.25,0.43,0.55,0.72,0.9
			c0.45,0.55,0.99,1.22,1.63,1.97c0.64,0.76,1.36,1.61,2.16,2.52c0.8,0.91,1.66,1.9,2.6,2.93c0.94,1.03,1.93,2.11,2.97,3.22
			c1.03,1.1,2.11,2.24,3.22,3.38c1.11,1.15,2.25,2.29,3.39,3.44c1.15,1.14,2.29,2.28,3.44,3.38c1.14,1.11,2.28,2.19,3.38,3.23
			c1.11,1.04,2.18,2.03,3.22,2.96c1.03,0.94,2.02,1.8,2.93,2.6c0.91,0.81,1.76,1.53,2.52,2.16c0.75,0.64,1.43,1.18,1.97,1.64
			c0.35,0.29,0.65,0.52,0.9,0.72c-0.2,1.05-0.43,2.09-0.73,3.12c-0.19,0.77-0.45,1.51-0.68,2.26c-0.13,0.37-0.27,0.74-0.4,1.11
			c-0.14,0.37-0.27,0.75-0.43,1.11c-1.19,2.93-2.73,5.75-4.62,8.34c-1.43,1.99-3.03,3.85-4.79,5.61c-0.29-0.36-0.68-0.82-1.16-1.38
			c-0.58-0.68-1.29-1.52-2.12-2.46c-0.82-0.94-1.75-2.01-2.79-3.15c-1.03-1.15-2.15-2.39-3.35-3.68c-1.2-1.29-2.47-2.65-3.8-4.05
			c-1.33-1.4-2.71-2.83-4.11-4.27c-1.41-1.45-2.86-2.9-4.3-4.36c-1.45-1.45-2.91-2.9-4.36-4.3c-1.44-1.41-2.88-2.79-4.27-4.11
			c-1.4-1.33-2.75-2.6-4.05-3.8c-1.29-1.2-2.53-2.32-3.68-3.35c-1.14-1.04-2.2-1.97-3.15-2.79c-0.94-0.83-1.77-1.53-2.46-2.12
			c-0.56-0.48-1.03-0.86-1.38-1.16c0.02-0.02,0.04-0.04,0.07-0.07L422.98,11.07z M411.01,30.78c0.83-3.22,2.1-6.28,3.67-9.16
			c1.61-2.86,3.55-5.51,5.73-7.93l0.84-0.89l0.42-0.44l0.2-0.21c0.29,0.35,0.67,0.82,1.16,1.38c0.58,0.69,1.29,1.52,2.12,2.46
			c0.83,0.95,1.76,2.01,2.79,3.15c1.03,1.15,2.15,2.39,3.35,3.68c1.2,1.29,2.47,2.65,3.8,4.05c1.33,1.39,2.7,2.83,4.11,4.27
			c1.41,1.45,2.86,2.9,4.3,4.36c1.46,1.44,2.91,2.89,4.36,4.3c1.44,1.41,2.88,2.79,4.27,4.12c1.39,1.33,2.75,2.6,4.05,3.8
			c1.29,1.2,2.53,2.32,3.68,3.35c1.14,1.04,2.2,1.97,3.15,2.79c0.94,0.83,1.78,1.53,2.46,2.12c0.56,0.48,1.03,0.86,1.38,1.16
			c-0.5,0.5-1.02,1-1.55,1.48c-1.2,1.06-2.45,2.12-3.79,3.07c-1.31,0.98-2.71,1.83-4.13,2.65c-2.88,1.57-5.95,2.84-9.16,3.67
			c-1,0.27-2,0.49-3.01,0.68c-0.18-0.23-0.39-0.5-0.64-0.79c-0.45-0.55-0.99-1.22-1.63-1.97c-0.64-0.75-1.35-1.61-2.16-2.52
			c-0.8-0.92-1.67-1.91-2.6-2.93c-0.94-1.03-1.93-2.11-2.96-3.22c-1.04-1.11-2.12-2.24-3.23-3.38c-1.11-1.15-2.24-2.29-3.38-3.44
			c-1.15-1.14-2.29-2.28-3.44-3.39c-1.14-1.11-2.28-2.19-3.38-3.23c-1.11-1.04-2.19-2.03-3.22-2.97c-1.03-0.94-2.02-1.8-2.94-2.6
			c-0.91-0.81-1.76-1.53-2.52-2.16c-0.75-0.64-1.42-1.19-1.97-1.63c-0.3-0.25-0.56-0.46-0.79-0.64
			C410.52,32.78,410.74,31.77,411.01,30.78z M409.7,50.91c-0.47-5.65-0.44-11.31,0.55-16.73c0.15,0.19,0.31,0.39,0.5,0.62
			c0.45,0.55,0.99,1.22,1.63,1.97c0.64,0.76,1.35,1.61,2.16,2.52c0.8,0.91,1.67,1.9,2.6,2.93c0.94,1.03,1.93,2.11,2.97,3.22
			c1.04,1.1,2.11,2.24,3.23,3.38c1.1,1.15,2.25,2.29,3.38,3.44c1.15,1.14,2.29,2.28,3.44,3.38c1.14,1.11,2.28,2.19,3.39,3.23
			c1.1,1.04,2.18,2.03,3.21,2.97c1.03,0.94,2.02,1.8,2.93,2.6c0.91,0.81,1.76,1.52,2.52,2.16c0.75,0.64,1.42,1.18,1.98,1.64
			c0.23,0.19,0.43,0.35,0.62,0.5c-5.42,0.99-11.08,1.02-16.73,0.55c-5.37-0.44-10.76-1.3-16.2-2.18
			C411,61.66,410.14,56.27,409.7,50.91z M380.61,67.05c0.87-0.11,1.76-0.16,2.64-0.23c0.88-0.04,1.76-0.09,2.64-0.1
			c7.07-0.12,14.11,0.85,21.08,1.93c0.96,0.15,1.93,0.3,2.9,0.46c0.15,0.97,0.31,1.94,0.46,2.9c1.08,6.97,2.05,14.01,1.93,21.08
			c-0.01,0.88-0.06,1.76-0.1,2.64c-0.07,0.88-0.12,1.76-0.23,2.63c-0.08,0.88-0.22,1.75-0.35,2.62c-0.06,0.3-0.11,0.61-0.17,0.91
			c-0.12-0.15-0.25-0.31-0.4-0.49c-0.45-0.55-0.99-1.22-1.63-1.97c-0.64-0.75-1.36-1.61-2.17-2.52c-0.8-0.92-1.67-1.91-2.6-2.93
			c-0.93-1.03-1.93-2.11-2.96-3.21c-1.04-1.11-2.12-2.24-3.23-3.39c-1.1-1.14-2.25-2.29-3.38-3.44c-1.15-1.14-2.29-2.28-3.45-3.38
			c-1.14-1.11-2.28-2.19-3.38-3.23c-1.11-1.04-2.19-2.03-3.22-2.97c-1.03-0.94-2.02-1.8-2.93-2.6c-0.91-0.81-1.76-1.53-2.52-2.16
			c-0.75-0.64-1.42-1.18-1.97-1.63c-0.18-0.15-0.34-0.28-0.5-0.4c0.31-0.05,0.61-0.11,0.92-0.17
			C378.87,67.27,379.74,67.13,380.61,67.05z M355.35,78.98l0.48-0.46c0.33-0.31,0.63-0.63,0.97-0.92c2.65-2.39,5.55-4.48,8.69-6.1
			l0.59-0.31l0.6-0.28c0.4-0.19,0.79-0.38,1.2-0.56c0.81-0.34,1.62-0.69,2.46-0.97c0.82-0.32,1.67-0.56,2.51-0.82
			c0.85-0.23,1.7-0.47,2.56-0.65c0.42-0.1,0.83-0.18,1.25-0.26c0.16,0.21,0.35,0.44,0.56,0.69c0.45,0.55,0.99,1.23,1.64,1.98
			c0.63,0.76,1.36,1.61,2.16,2.52c0.8,0.92,1.67,1.9,2.6,2.93c0.94,1.03,1.93,2.11,2.97,3.22c1.04,1.1,2.12,2.24,3.23,3.38
			c1.11,1.15,2.25,2.29,3.39,3.44c1.15,1.14,2.29,2.28,3.44,3.38c1.14,1.11,2.28,2.19,3.39,3.23c1.1,1.04,2.18,2.03,3.21,2.97
			c1.03,0.94,2.02,1.8,2.94,2.6c0.91,0.81,1.76,1.53,2.52,2.16c0.75,0.64,1.43,1.18,1.98,1.63c0.25,0.21,0.48,0.39,0.69,0.55
			c-0.08,0.42-0.16,0.84-0.26,1.25c-0.18,0.86-0.42,1.71-0.65,2.56c-0.27,0.84-0.51,1.68-0.83,2.51c-0.28,0.83-0.64,1.64-0.97,2.46
			c-0.18,0.4-0.37,0.8-0.56,1.2l-0.28,0.6l-0.31,0.58c-0.8,1.57-1.75,3.07-2.76,4.53l-0.78,1.08c-0.26,0.36-0.55,0.7-0.82,1.05
			c-0.55,0.71-1.14,1.35-1.72,2.02c-0.28,0.33-0.62,0.66-0.93,0.99l-0.48,0.5l-0.23,0.23c-0.27-0.33-0.61-0.74-1.02-1.21
			c-0.59-0.68-1.29-1.52-2.12-2.46c-0.83-0.94-1.76-2.01-2.79-3.15c-1.03-1.14-2.15-2.39-3.35-3.68c-1.2-1.3-2.47-2.65-3.8-4.05
			c-1.33-1.39-2.7-2.83-4.11-4.27c-1.41-1.45-2.86-2.9-4.3-4.36c-1.45-1.45-2.91-2.89-4.36-4.3c-1.44-1.41-2.88-2.79-4.27-4.12
			c-1.39-1.33-2.75-2.6-4.05-3.8c-1.29-1.2-2.53-2.32-3.68-3.35c-1.14-1.04-2.2-1.97-3.15-2.79c-0.94-0.83-1.77-1.53-2.46-2.12
			c-0.47-0.41-0.88-0.75-1.21-1.02c0,0,0,0,0,0L355.35,78.98z M344.92,95.19c0.58-1.7,1.29-3.34,2.08-4.94
			c0.8-1.6,1.73-3.13,2.73-4.61l0.78-1.09l0.39-0.54l0.42-0.52l0.83-1.05l0.87-1l0.43-0.5c0.15-0.17,0.31-0.33,0.47-0.5l0.95-1
			c0.02-0.02,0.03-0.03,0.04-0.04c0.27,0.33,0.61,0.74,1.02,1.21c0.58,0.68,1.29,1.52,2.12,2.46c0.82,0.94,1.75,2.01,2.79,3.15
			c1.03,1.15,2.15,2.39,3.35,3.68c1.2,1.3,2.47,2.65,3.8,4.05c1.32,1.39,2.7,2.83,4.11,4.27c1.41,1.45,2.86,2.9,4.3,4.36
			c1.45,1.44,2.91,2.89,4.36,4.3c1.44,1.41,2.88,2.79,4.27,4.11c1.39,1.33,2.75,2.6,4.04,3.8c1.29,1.2,2.54,2.32,3.68,3.35
			c1.14,1.04,2.21,1.97,3.15,2.79c0.94,0.83,1.77,1.53,2.46,2.12c0.47,0.41,0.88,0.74,1.21,1.02c-0.02,0.02-0.04,0.04-0.06,0.06
			l-0.97,0.92c-0.16,0.16-0.32,0.31-0.49,0.46l-0.5,0.44l-1.01,0.88l-1.05,0.83l-0.52,0.42l-0.54,0.39l-1.09,0.78
			c-1.49,1-3.01,1.92-4.61,2.73c-1.6,0.79-3.25,1.51-4.94,2.08c-1.7,0.57-3.44,1.05-5.2,1.41c-0.2,0.04-0.4,0.07-0.6,0.11
			c-0.16-0.19-0.33-0.41-0.52-0.64c-0.45-0.55-0.99-1.22-1.64-1.97c-0.64-0.76-1.35-1.61-2.16-2.52c-0.8-0.92-1.67-1.91-2.6-2.93
			c-0.93-1.03-1.92-2.11-2.96-3.21c-1.04-1.11-2.12-2.24-3.23-3.39c-1.1-1.14-2.25-2.29-3.38-3.44c-1.15-1.14-2.3-2.28-3.44-3.38
			c-1.14-1.11-2.28-2.19-3.38-3.23c-1.11-1.04-2.19-2.03-3.22-2.97c-1.03-0.94-2.02-1.8-2.94-2.6c-0.91-0.81-1.76-1.53-2.52-2.16
			c-0.75-0.64-1.42-1.18-1.98-1.63c-0.23-0.19-0.45-0.36-0.64-0.51c0.04-0.2,0.07-0.4,0.11-0.6
			C343.88,98.63,344.35,96.89,344.92,95.19z M343.93,127.74c-1.08-7.35-1.86-14.74-1.2-21.98c0.14-1.45,0.33-2.89,0.59-4.32
			c0.11,0.14,0.23,0.28,0.36,0.43c0.45,0.55,0.99,1.22,1.63,1.98c0.64,0.76,1.36,1.61,2.16,2.52c0.8,0.92,1.67,1.91,2.6,2.94
			c0.94,1.03,1.93,2.11,2.97,3.22c1.03,1.1,2.11,2.24,3.23,3.38c1.1,1.14,2.25,2.29,3.38,3.44c1.15,1.14,2.3,2.28,3.44,3.38
			c1.14,1.11,2.28,2.19,3.38,3.23c1.1,1.04,2.18,2.03,3.21,2.96c1.03,0.94,2.02,1.8,2.93,2.6c0.91,0.81,1.76,1.53,2.52,2.16
			c0.75,0.64,1.42,1.18,1.97,1.63c0.16,0.13,0.3,0.25,0.44,0.36c-1.43,0.25-2.87,0.45-4.32,0.59c-7.25,0.65-14.63-0.12-21.98-1.2
			c-2.11-0.31-4.21-0.65-6.33-0.99C344.58,131.96,344.24,129.85,343.93,127.74z M323.11,133.97c1.85,0.08,3.7,0.22,5.55,0.4
			c4.68,0.46,9.34,1.19,14.02,1.94c0.75,4.67,1.48,9.33,1.94,14.01c0.18,1.85,0.31,3.7,0.4,5.55c0.08,1.85,0.08,3.7,0.02,5.54
			c-0.1,2.51-0.34,5.01-0.79,7.46c-0.1-0.12-0.2-0.25-0.32-0.39c-0.45-0.55-0.99-1.23-1.64-1.98c-0.64-0.75-1.36-1.61-2.16-2.52
			c-0.8-0.92-1.67-1.91-2.61-2.94c-0.94-1.03-1.93-2.11-2.97-3.21c-1.03-1.11-2.12-2.24-3.22-3.39c-1.11-1.14-2.25-2.29-3.38-3.44
			c-1.15-1.14-2.3-2.28-3.44-3.39c-1.14-1.11-2.28-2.19-3.38-3.23c-1.11-1.04-2.19-2.03-3.22-2.97c-1.03-0.94-2.02-1.8-2.93-2.6
			c-0.91-0.81-1.76-1.53-2.52-2.16c-0.75-0.64-1.42-1.18-1.97-1.63c-0.13-0.11-0.26-0.22-0.38-0.31c2.45-0.44,4.95-0.69,7.45-0.79
			C319.41,133.89,321.26,133.89,323.11,133.97z M289.49,145c0.17-0.16,0.34-0.3,0.51-0.45l1.02-0.89l1.07-0.86l0.54-0.43l0.55-0.4
			c0.37-0.27,0.74-0.54,1.11-0.8c0.77-0.5,1.52-1.02,2.32-1.47c0.78-0.48,1.59-0.89,2.4-1.32c0.83-0.38,1.64-0.79,2.49-1.13
			c0.84-0.37,1.7-0.66,2.56-0.97c0.87-0.27,1.74-0.56,2.62-0.78c0.98-0.26,1.97-0.48,2.96-0.67c0.15,0.18,0.3,0.38,0.48,0.6
			c0.45,0.55,0.99,1.22,1.63,1.98c0.63,0.76,1.36,1.61,2.16,2.52c0.8,0.92,1.66,1.91,2.6,2.94c0.94,1.03,1.93,2.11,2.97,3.22
			c1.04,1.1,2.11,2.25,3.23,3.38c1.1,1.15,2.25,2.29,3.39,3.44c1.15,1.14,2.29,2.28,3.44,3.38c1.14,1.11,2.28,2.19,3.38,3.23
			c1.11,1.04,2.19,2.03,3.22,2.97c1.03,0.94,2.02,1.8,2.93,2.6c0.91,0.81,1.76,1.53,2.52,2.16c0.75,0.64,1.42,1.19,1.97,1.64
			c0.22,0.18,0.42,0.34,0.6,0.49c-0.19,0.99-0.41,1.98-0.67,2.96c-0.22,0.89-0.51,1.76-0.78,2.63c-0.32,0.86-0.61,1.72-0.97,2.56
			c-0.33,0.85-0.74,1.66-1.13,2.49c-0.43,0.81-0.84,1.62-1.32,2.4c-0.45,0.79-0.97,1.54-1.47,2.31l-0.8,1.11l-0.4,0.56l-0.43,0.54
			l-0.86,1.07l-0.91,1.04c-0.15,0.17-0.3,0.34-0.46,0.51l-0.48,0.5l-0.86,0.89c-0.27-0.32-0.59-0.71-0.97-1.16
			c-0.59-0.69-1.29-1.52-2.12-2.46c-0.83-0.94-1.75-2.01-2.79-3.15c-1.03-1.14-2.15-2.39-3.35-3.68c-1.2-1.29-2.47-2.65-3.8-4.05
			c-1.32-1.39-2.7-2.83-4.11-4.27c-1.41-1.45-2.85-2.9-4.3-4.36c-1.46-1.45-2.91-2.89-4.36-4.3c-1.44-1.42-2.88-2.79-4.27-4.11
			c-1.39-1.33-2.75-2.6-4.05-3.8c-1.29-1.2-2.53-2.32-3.68-3.35c-1.14-1.04-2.2-1.97-3.15-2.79c-0.94-0.83-1.77-1.53-2.46-2.12
			c-0.45-0.39-0.84-0.71-1.16-0.97l0.9-0.86L289.49,145z M277.01,165.16c0.22-0.89,0.51-1.76,0.78-2.63
			c0.32-0.86,0.61-1.73,0.97-2.56c0.34-0.85,0.75-1.67,1.13-2.49c0.43-0.8,0.84-1.62,1.32-2.4c0.45-0.8,0.97-1.55,1.47-2.31
			l0.8-1.11l0.4-0.55l0.43-0.54l0.86-1.07l0.91-1.03c0.15-0.17,0.3-0.35,0.46-0.52l0.47-0.49l0.87-0.91
			c0.27,0.32,0.59,0.71,0.97,1.16c0.59,0.69,1.29,1.52,2.12,2.46c0.82,0.95,1.76,2.01,2.79,3.15c1.03,1.15,2.15,2.39,3.35,3.68
			c1.2,1.29,2.47,2.65,3.8,4.04c1.33,1.39,2.7,2.83,4.12,4.27c1.41,1.45,2.86,2.9,4.3,4.36c1.45,1.45,2.91,2.89,4.36,4.3
			c1.44,1.41,2.88,2.79,4.27,4.11c1.39,1.33,2.75,2.6,4.05,3.8c1.29,1.2,2.54,2.32,3.68,3.35c1.14,1.04,2.2,1.97,3.15,2.79
			c0.94,0.83,1.77,1.53,2.46,2.12c0.45,0.39,0.84,0.71,1.16,0.98l-0.92,0.88l-0.51,0.49c-0.17,0.16-0.34,0.3-0.51,0.45l-1.02,0.89
			l-1.07,0.86l-0.54,0.43l-0.56,0.41c-0.37,0.27-0.74,0.54-1.11,0.8c-0.77,0.5-1.52,1.02-2.32,1.47c-0.78,0.48-1.6,0.89-2.4,1.32
			c-0.82,0.39-1.64,0.8-2.49,1.13c-0.83,0.36-1.7,0.66-2.56,0.97c-0.87,0.27-1.74,0.56-2.62,0.78c-0.97,0.26-1.95,0.48-2.94,0.67
			c-0.15-0.18-0.31-0.38-0.49-0.61c-0.45-0.55-0.99-1.22-1.63-1.97c-0.64-0.76-1.36-1.61-2.16-2.52c-0.8-0.92-1.66-1.91-2.6-2.94
			c-0.93-1.03-1.93-2.11-2.97-3.21c-1.03-1.11-2.12-2.24-3.22-3.38c-1.11-1.15-2.25-2.29-3.38-3.44c-1.15-1.14-2.3-2.28-3.44-3.38
			c-1.14-1.11-2.28-2.19-3.38-3.23c-1.1-1.04-2.18-2.03-3.21-2.97c-1.03-0.94-2.02-1.8-2.93-2.6c-0.91-0.81-1.76-1.53-2.52-2.16
			c-0.75-0.64-1.42-1.19-1.98-1.63c-0.23-0.19-0.42-0.35-0.61-0.5C276.54,167.1,276.76,166.12,277.01,165.16z M275.89,187.14
			c-0.18-1.85-0.31-3.71-0.4-5.56c-0.08-1.85-0.08-3.7-0.03-5.54c0.1-2.52,0.35-5.02,0.79-7.49c0.1,0.12,0.21,0.26,0.33,0.4
			c0.45,0.55,0.99,1.22,1.63,1.97c0.64,0.76,1.36,1.61,2.16,2.52c0.8,0.91,1.67,1.91,2.6,2.93c0.93,1.03,1.93,2.11,2.96,3.22
			c1.04,1.1,2.12,2.25,3.23,3.38c1.11,1.14,2.25,2.29,3.38,3.44c1.15,1.14,2.29,2.28,3.44,3.39c1.14,1.11,2.28,2.19,3.38,3.22
			c1.1,1.04,2.18,2.04,3.22,2.97c1.03,0.94,2.02,1.8,2.93,2.6c0.91,0.81,1.76,1.52,2.52,2.16c0.75,0.64,1.42,1.18,1.97,1.63
			c0.14,0.11,0.27,0.22,0.4,0.32c-2.46,0.45-4.97,0.7-7.49,0.79c-1.84,0.06-3.69,0.05-5.54-0.02c-1.85-0.08-3.7-0.22-5.55-0.4
			c-4.68-0.46-9.34-1.19-14.02-1.94C277.08,196.47,276.35,191.81,275.89,187.14z M247.29,201.19c7.24-0.66,14.63,0.13,21.98,1.21
			c2.11,0.31,4.21,0.65,6.33,0.99c0.34,2.12,0.68,4.22,0.99,6.33c1.08,7.35,1.86,14.74,1.2,21.98c-0.14,1.44-0.33,2.87-0.58,4.29
			c-0.11-0.13-0.22-0.27-0.35-0.42c-0.45-0.55-0.99-1.22-1.63-1.97c-0.64-0.76-1.36-1.61-2.16-2.52c-0.8-0.92-1.67-1.91-2.6-2.94
			c-0.94-1.03-1.93-2.11-2.97-3.21c-1.04-1.11-2.12-2.24-3.23-3.38c-1.11-1.14-2.25-2.29-3.38-3.44c-1.15-1.14-2.3-2.28-3.44-3.38
			c-1.14-1.11-2.28-2.19-3.38-3.23c-1.1-1.04-2.18-2.03-3.21-2.96c-1.03-0.94-2.02-1.81-2.93-2.6c-0.91-0.81-1.76-1.53-2.52-2.16
			c-0.75-0.65-1.42-1.18-1.97-1.63c-0.15-0.13-0.29-0.24-0.42-0.34C244.41,201.53,245.85,201.33,247.29,201.19z M221.96,212.41
			c0.16-0.15,0.32-0.31,0.48-0.46l0.51-0.44l1.01-0.88l1.05-0.84l0.53-0.42l0.54-0.39l1.09-0.78c1.48-0.99,3.01-1.92,4.61-2.73
			c1.6-0.79,3.25-1.5,4.95-2.08c1.7-0.57,3.43-1.05,5.2-1.42c0.2-0.04,0.41-0.08,0.62-0.11c0.15,0.19,0.32,0.4,0.51,0.63
			c0.45,0.55,0.99,1.23,1.63,1.97c0.64,0.76,1.35,1.61,2.16,2.52c0.8,0.92,1.66,1.91,2.6,2.93c0.94,1.03,1.93,2.11,2.97,3.21
			c1.04,1.11,2.11,2.24,3.23,3.38c1.1,1.15,2.25,2.29,3.38,3.44c1.15,1.14,2.3,2.28,3.44,3.38c1.14,1.11,2.28,2.19,3.38,3.23
			c1.1,1.04,2.19,2.03,3.21,2.96c1.03,0.94,2.02,1.8,2.94,2.61c0.91,0.81,1.76,1.53,2.52,2.16c0.75,0.64,1.42,1.19,1.97,1.64
			c0.23,0.19,0.44,0.36,0.63,0.51c-0.04,0.21-0.08,0.42-0.12,0.63c-0.37,1.77-0.84,3.5-1.41,5.2c-0.58,1.7-1.29,3.34-2.08,4.95
			c-0.81,1.6-1.73,3.13-2.73,4.61l-0.78,1.09l-0.39,0.54l-0.42,0.52l-0.83,1.05l-0.87,1l-0.44,0.5c-0.15,0.17-0.31,0.33-0.47,0.5
			l-0.95,0.99c-0.01,0.01-0.02,0.02-0.03,0.03c-0.27-0.33-0.61-0.74-1.02-1.21c-0.58-0.69-1.29-1.52-2.12-2.46
			c-0.82-0.95-1.75-2.01-2.79-3.15c-1.03-1.14-2.15-2.39-3.35-3.68c-1.2-1.29-2.47-2.65-3.8-4.05c-1.33-1.39-2.7-2.83-4.12-4.27
			c-1.41-1.45-2.86-2.9-4.3-4.36c-1.45-1.44-2.91-2.89-4.36-4.3c-1.44-1.41-2.88-2.79-4.27-4.12c-1.39-1.32-2.75-2.6-4.04-3.79
			c-1.29-1.2-2.54-2.32-3.68-3.35c-1.14-1.04-2.2-1.97-3.15-2.79c-0.93-0.83-1.77-1.53-2.46-2.12c-0.47-0.41-0.88-0.74-1.21-1.02
			c0.01-0.01,0.02-0.02,0.04-0.04L221.96,212.41z M210.09,231.31c0.27-0.84,0.5-1.69,0.82-2.51c0.28-0.84,0.63-1.64,0.97-2.46
			c0.18-0.41,0.37-0.8,0.56-1.2l0.28-0.6l0.31-0.59c0.8-1.57,1.75-3.07,2.76-4.53l0.79-1.08c0.25-0.36,0.55-0.7,0.82-1.05
			c0.54-0.71,1.13-1.35,1.71-2.02c0.27-0.33,0.62-0.66,0.93-0.99l0.48-0.5l0.24-0.25c0,0,0,0,0,0c0.27,0.33,0.61,0.74,1.02,1.21
			c0.59,0.69,1.29,1.52,2.12,2.46c0.82,0.94,1.75,2.01,2.79,3.15c1.03,1.15,2.15,2.39,3.35,3.68c1.2,1.29,2.47,2.65,3.8,4.05
			c1.33,1.39,2.7,2.83,4.12,4.27c1.4,1.45,2.86,2.9,4.3,4.35c1.45,1.45,2.91,2.9,4.36,4.3c1.44,1.41,2.88,2.79,4.27,4.12
			c1.39,1.33,2.75,2.6,4.05,3.8c1.29,1.2,2.53,2.32,3.68,3.35c1.14,1.04,2.2,1.97,3.15,2.79c0.94,0.83,1.78,1.53,2.46,2.12
			c0.48,0.41,0.89,0.75,1.22,1.02c-0.01,0.01-0.02,0.01-0.02,0.02l-0.24,0.23l-0.48,0.46c-0.33,0.31-0.63,0.63-0.98,0.92
			c-2.65,2.38-5.55,4.48-8.69,6.1l-0.58,0.31l-0.6,0.28c-0.4,0.18-0.79,0.38-1.2,0.56c-0.81,0.34-1.62,0.69-2.46,0.98
			c-0.82,0.31-1.67,0.56-2.51,0.82c-0.85,0.23-1.7,0.47-2.56,0.65c-0.4,0.1-0.81,0.18-1.22,0.26c-0.16-0.21-0.35-0.45-0.57-0.71
			c-0.45-0.55-0.99-1.22-1.63-1.97c-0.64-0.75-1.36-1.61-2.16-2.52c-0.8-0.92-1.67-1.91-2.6-2.93c-0.94-1.04-1.93-2.11-2.97-3.22
			c-1.04-1.1-2.12-2.24-3.23-3.38c-1.11-1.15-2.24-2.29-3.38-3.44c-1.15-1.14-2.29-2.28-3.44-3.38c-1.14-1.11-2.28-2.19-3.38-3.23
			c-1.11-1.04-2.18-2.03-3.21-2.97c-1.03-0.93-2.02-1.8-2.93-2.6c-0.91-0.81-1.76-1.53-2.52-2.16c-0.75-0.65-1.42-1.19-1.97-1.63
			c-0.26-0.21-0.49-0.4-0.7-0.56c0.08-0.41,0.16-0.82,0.26-1.23C209.62,233.01,209.86,232.16,210.09,231.31z M210.19,265.44
			c-1.08-6.97-2.05-14.01-1.93-21.08c0-0.88,0.06-1.76,0.1-2.65c0.07-0.88,0.12-1.76,0.23-2.63c0.09-0.88,0.22-1.75,0.35-2.62
			c0.06-0.31,0.12-0.63,0.17-0.94c0.13,0.15,0.26,0.32,0.41,0.5c0.45,0.55,0.99,1.22,1.63,1.97c0.64,0.76,1.36,1.61,2.17,2.52
			c0.8,0.92,1.67,1.9,2.6,2.93c0.94,1.03,1.93,2.11,2.96,3.22c1.04,1.1,2.12,2.24,3.23,3.38c1.1,1.14,2.25,2.29,3.38,3.44
			c1.15,1.14,2.3,2.28,3.44,3.39c1.14,1.11,2.28,2.19,3.38,3.23c1.11,1.04,2.18,2.03,3.21,2.97c1.03,0.94,2.02,1.8,2.94,2.6
			c0.9,0.81,1.76,1.53,2.52,2.16c0.75,0.65,1.42,1.18,1.97,1.64c0.19,0.15,0.35,0.28,0.51,0.42c-0.31,0.05-0.63,0.11-0.94,0.17
			c-0.87,0.12-1.74,0.27-2.62,0.35c-0.87,0.11-1.76,0.16-2.63,0.23c-0.88,0.04-1.76,0.09-2.65,0.1c-7.07,0.12-14.11-0.85-21.08-1.93
			c-0.97-0.15-1.93-0.3-2.9-0.46C210.49,267.38,210.34,266.42,210.19,265.44z M192.44,268.17c5.36,0.44,10.76,1.29,16.2,2.18
			c0.89,5.44,1.74,10.83,2.18,16.2c0.47,5.64,0.44,11.28-0.55,16.7c-0.15-0.18-0.3-0.38-0.49-0.6c-0.45-0.55-0.99-1.22-1.63-1.97
			c-0.64-0.76-1.35-1.61-2.16-2.52c-0.8-0.91-1.67-1.9-2.6-2.93c-0.94-1.03-1.93-2.11-2.97-3.22c-1.04-1.1-2.12-2.24-3.23-3.38
			c-1.1-1.15-2.24-2.29-3.38-3.44c-1.15-1.14-2.29-2.28-3.44-3.38c-1.14-1.11-2.28-2.19-3.38-3.23c-1.1-1.04-2.18-2.03-3.21-2.97
			c-1.03-0.94-2.02-1.8-2.93-2.6c-0.91-0.81-1.76-1.53-2.52-2.16c-0.75-0.64-1.43-1.18-1.98-1.63c-0.22-0.18-0.42-0.34-0.6-0.49
			C181.15,267.73,186.8,267.7,192.44,268.17z M159.01,275.79c1.31-0.98,2.71-1.82,4.13-2.65c2.88-1.57,5.95-2.84,9.16-3.67
			c1-0.27,2.02-0.49,3.04-0.69c0.18,0.23,0.38,0.49,0.63,0.78c0.45,0.55,0.99,1.22,1.64,1.98c0.64,0.76,1.35,1.61,2.16,2.52
			c0.8,0.92,1.67,1.9,2.6,2.93c0.93,1.03,1.93,2.11,2.97,3.22c1.04,1.11,2.12,2.24,3.23,3.38c1.1,1.14,2.24,2.29,3.38,3.44
			c1.15,1.14,2.3,2.28,3.44,3.39c1.14,1.11,2.27,2.19,3.38,3.23c1.11,1.04,2.19,2.03,3.22,2.96c1.03,0.94,2.02,1.8,2.93,2.6
			c0.91,0.81,1.77,1.53,2.52,2.17c0.75,0.64,1.42,1.18,1.97,1.63c0.29,0.24,0.55,0.45,0.78,0.63c-0.2,1.03-0.42,2.04-0.69,3.04
			c-0.83,3.22-2.1,6.28-3.67,9.17c-1.61,2.86-3.54,5.51-5.73,7.93l-0.84,0.88l-0.42,0.44l-0.18,0.2c-0.29-0.35-0.68-0.83-1.16-1.38
			c-0.59-0.68-1.29-1.52-2.12-2.46c-0.82-0.95-1.75-2.01-2.79-3.15c-1.03-1.15-2.15-2.39-3.35-3.68c-1.2-1.29-2.47-2.65-3.8-4.05
			c-1.32-1.39-2.7-2.83-4.12-4.27c-1.41-1.45-2.85-2.91-4.3-4.36c-1.46-1.45-2.91-2.9-4.36-4.3c-1.44-1.41-2.88-2.79-4.27-4.11
			c-1.39-1.33-2.75-2.6-4.05-3.8c-1.29-1.2-2.53-2.32-3.68-3.35c-1.14-1.04-2.2-1.96-3.15-2.79c-0.94-0.83-1.78-1.53-2.46-2.12
			c-0.56-0.48-1.03-0.86-1.38-1.16c0.5-0.5,1.01-0.98,1.53-1.46C156.43,277.8,157.68,276.74,159.01,275.79z M142.61,298.92
			c0.19-0.76,0.45-1.51,0.68-2.26c0.13-0.38,0.27-0.74,0.4-1.12c0.14-0.37,0.27-0.74,0.43-1.1c1.19-2.93,2.73-5.75,4.62-8.34
			c1.44-1.99,3.04-3.86,4.81-5.63c0.29,0.36,0.68,0.83,1.15,1.38c0.58,0.68,1.29,1.52,2.12,2.46c0.82,0.95,1.76,2.01,2.79,3.15
			c1.03,1.15,2.15,2.39,3.35,3.68c1.2,1.3,2.47,2.65,3.8,4.05c1.33,1.39,2.7,2.83,4.11,4.27c1.41,1.45,2.86,2.9,4.3,4.36
			c1.46,1.45,2.91,2.89,4.36,4.3c1.44,1.41,2.88,2.79,4.27,4.11c1.39,1.33,2.75,2.6,4.04,3.8c1.29,1.2,2.54,2.32,3.68,3.35
			c1.14,1.03,2.2,1.97,3.15,2.79c0.94,0.83,1.77,1.54,2.46,2.12c0.56,0.48,1.03,0.87,1.38,1.16c-0.02,0.03-0.05,0.05-0.09,0.09
			l-0.9,0.86c-0.3,0.29-0.6,0.58-0.9,0.83c-0.6,0.53-1.19,1.07-1.83,1.56l-0.94,0.75l-0.98,0.71c-2.59,1.89-5.41,3.42-8.34,4.62
			c-0.36,0.16-0.73,0.29-1.11,0.43c-0.37,0.13-0.74,0.27-1.11,0.4c-0.76,0.23-1.5,0.5-2.26,0.69c-1.02,0.3-2.05,0.52-3.1,0.73
			c-0.2-0.26-0.44-0.56-0.73-0.91c-0.45-0.55-0.99-1.23-1.63-1.97c-0.64-0.76-1.36-1.61-2.16-2.52c-0.8-0.92-1.67-1.9-2.6-2.93
			c-0.94-1.03-1.93-2.11-2.97-3.22c-1.04-1.11-2.12-2.24-3.23-3.38c-1.1-1.15-2.25-2.29-3.38-3.44c-1.15-1.14-2.29-2.28-3.44-3.39
			c-1.14-1.11-2.28-2.19-3.38-3.23c-1.11-1.04-2.18-2.03-3.22-2.96c-1.03-0.94-2.02-1.8-2.93-2.61c-0.91-0.8-1.76-1.52-2.52-2.16
			c-0.75-0.64-1.42-1.18-1.97-1.63c-0.35-0.29-0.66-0.53-0.92-0.73C142.09,300.97,142.32,299.94,142.61,298.92z M142.61,331.23
			c-0.45-3.01-0.87-6.05-1.19-9.11c-0.32-3.06-0.52-6.16-0.52-9.27c-0.02-3.11,0.21-6.24,0.7-9.34c0.07-0.39,0.14-0.78,0.21-1.17
			c0.18,0.22,0.38,0.48,0.62,0.76c0.45,0.55,0.99,1.22,1.63,1.97c0.64,0.76,1.36,1.61,2.16,2.52c0.8,0.92,1.66,1.9,2.6,2.94
			c0.94,1.03,1.93,2.11,2.97,3.21c1.04,1.11,2.12,2.24,3.23,3.38c1.1,1.15,2.25,2.29,3.38,3.44c1.15,1.14,2.29,2.28,3.44,3.38
			c1.14,1.11,2.28,2.19,3.38,3.23c1.11,1.04,2.19,2.03,3.22,2.97c1.03,0.94,2.02,1.8,2.93,2.6c0.91,0.81,1.76,1.53,2.52,2.17
			c0.75,0.64,1.42,1.18,1.97,1.63c0.29,0.23,0.54,0.44,0.76,0.61c-0.39,0.08-0.78,0.15-1.17,0.22c-3.1,0.49-6.22,0.72-9.34,0.7
			c-6.23-0.01-12.36-0.82-18.38-1.71c-1.49-0.23-2.97-0.46-4.46-0.69C143.07,334.2,142.84,332.72,142.61,331.23z M129.73,335.38
			c3.98,0.48,8,1.13,12.08,1.8c0.67,4.08,1.32,8.09,1.8,12.07c0.7,5.81,1.03,11.56,0.48,17.12c-0.14,1.46-0.35,2.9-0.61,4.32
			c-0.21-0.27-0.46-0.59-0.78-0.97c-0.45-0.55-0.99-1.22-1.63-1.97c-0.64-0.75-1.35-1.61-2.16-2.52c-0.8-0.91-1.67-1.9-2.6-2.93
			c-0.94-1.03-1.93-2.11-2.97-3.21c-1.04-1.11-2.12-2.24-3.22-3.39c-1.1-1.14-2.25-2.29-3.38-3.44c-1.15-1.14-2.29-2.28-3.44-3.38
			c-1.14-1.11-2.28-2.19-3.38-3.23c-1.11-1.04-2.19-2.03-3.21-2.97c-1.03-0.94-2.02-1.8-2.93-2.6c-0.91-0.8-1.76-1.53-2.52-2.16
			c-0.75-0.65-1.42-1.19-1.98-1.64c-0.38-0.31-0.7-0.57-0.97-0.77c1.42-0.27,2.86-0.47,4.32-0.61
			C118.18,334.35,123.93,334.68,129.73,335.38z M87.4,346.13c0.46-0.45,0.96-0.86,1.45-1.29c0.48-0.43,0.99-0.83,1.51-1.24
			c2.05-1.61,4.26-3.06,6.63-4.27c2.37-1.21,4.88-2.22,7.5-2.95c1.16-0.32,2.34-0.59,3.54-0.83c0.22,0.29,0.51,0.66,0.87,1.09
			c0.45,0.55,0.99,1.22,1.63,1.98c0.64,0.76,1.36,1.61,2.16,2.52c0.8,0.92,1.67,1.91,2.6,2.94c0.93,1.03,1.92,2.11,2.96,3.21
			c1.04,1.1,2.12,2.24,3.23,3.38c1.1,1.14,2.24,2.29,3.38,3.44c1.15,1.13,2.3,2.28,3.44,3.38c1.14,1.11,2.28,2.19,3.38,3.22
			c1.11,1.04,2.19,2.03,3.22,2.97c1.03,0.93,2.02,1.8,2.93,2.6c0.91,0.81,1.76,1.53,2.51,2.16c0.75,0.64,1.43,1.18,1.98,1.63
			c0.44,0.37,0.81,0.65,1.1,0.87c-0.23,1.19-0.5,2.37-0.83,3.53c-0.73,2.62-1.73,5.13-2.94,7.51c-1.22,2.37-2.66,4.58-4.27,6.63
			c-1.11,1.41-2.31,2.76-3.56,4.03c-0.02-0.03-0.04-0.04-0.06-0.07c-0.31-0.37-0.76-0.92-1.34-1.6c-0.58-0.68-1.29-1.52-2.12-2.46
			c-0.83-0.94-1.75-2.01-2.79-3.14c-1.03-1.15-2.15-2.39-3.35-3.68c-1.2-1.3-2.47-2.65-3.8-4.04c-1.32-1.4-2.7-2.83-4.11-4.28
			c-1.41-1.45-2.85-2.9-4.3-4.36c-1.45-1.44-2.91-2.9-4.35-4.3c-1.44-1.41-2.88-2.79-4.27-4.12c-1.39-1.33-2.75-2.6-4.05-3.8
			c-1.29-1.2-2.53-2.32-3.68-3.35c-1.14-1.04-2.2-1.97-3.15-2.79c-0.94-0.83-1.77-1.54-2.46-2.12c-0.68-0.59-1.24-1.04-1.6-1.34
			c-0.02-0.02-0.05-0.04-0.07-0.06C86.67,346.82,87.05,346.47,87.4,346.13z M76.7,361.29c1.81-4.46,4.55-8.7,7.98-12.43
			c0.44-0.46,0.9-0.93,1.34-1.4c0.07-0.07,0.14-0.14,0.21-0.21c0.02,0.02,0.04,0.05,0.06,0.07c0.31,0.37,0.75,0.92,1.34,1.61
			c0.59,0.68,1.29,1.52,2.12,2.46c0.82,0.95,1.76,2.01,2.79,3.15c1.03,1.14,2.15,2.39,3.35,3.68c1.2,1.29,2.47,2.65,3.8,4.05
			c1.33,1.39,2.71,2.83,4.12,4.27c1.41,1.45,2.85,2.9,4.3,4.36c1.46,1.45,2.91,2.9,4.35,4.3c1.45,1.41,2.88,2.79,4.27,4.11
			c1.4,1.32,2.75,2.6,4.05,3.8c1.29,1.2,2.53,2.32,3.68,3.35c1.14,1.04,2.2,1.97,3.15,2.79c0.94,0.83,1.77,1.54,2.46,2.12
			c0.68,0.59,1.24,1.03,1.6,1.34c0.02,0.02,0.05,0.04,0.07,0.06c-0.52,0.53-1.06,1.05-1.6,1.55c-3.75,3.45-7.97,6.17-12.44,7.99
			c-2.46,1.01-4.98,1.74-7.51,2.26c-0.24-0.3-0.58-0.74-1.03-1.29c-0.45-0.55-0.99-1.22-1.63-1.97c-0.64-0.75-1.36-1.61-2.16-2.52
			c-0.8-0.91-1.67-1.91-2.6-2.93c-0.94-1.03-1.93-2.11-2.97-3.21c-1.04-1.11-2.12-2.24-3.22-3.38c-1.11-1.15-2.25-2.29-3.39-3.44
			c-1.15-1.14-2.29-2.28-3.44-3.38c-1.14-1.11-2.28-2.19-3.38-3.23c-1.11-1.04-2.19-2.03-3.22-2.96c-1.03-0.93-2.02-1.8-2.93-2.6
			c-0.91-0.81-1.76-1.53-2.52-2.16c-0.75-0.64-1.42-1.18-1.97-1.64c-0.55-0.44-0.99-0.78-1.29-1.02
			C74.96,366.27,75.69,363.75,76.7,361.29z M75.38,400.49c-0.6-3.93-1.19-8.03-1.59-12.29c-0.4-4.26-0.57-8.7-0.21-13.25
			c0.16-1.97,0.43-3.96,0.83-5.95c0.23,0.3,0.54,0.7,0.96,1.2c0.45,0.55,0.99,1.22,1.63,1.97c0.64,0.76,1.36,1.61,2.16,2.52
			c0.8,0.92,1.67,1.9,2.6,2.93c0.93,1.03,1.93,2.11,2.97,3.22c1.04,1.1,2.12,2.24,3.23,3.38c1.1,1.15,2.24,2.29,3.38,3.44
			c1.15,1.14,2.3,2.28,3.44,3.38c1.14,1.11,2.28,2.19,3.38,3.23c1.11,1.04,2.19,2.03,3.22,2.97c1.03,0.93,2.02,1.8,2.93,2.6
			c0.91,0.81,1.76,1.52,2.52,2.16c0.75,0.65,1.42,1.19,1.97,1.64c0.5,0.42,0.91,0.73,1.21,0.96c-1.99,0.4-3.99,0.68-5.96,0.83
			c-4.55,0.36-8.99,0.18-13.25-0.21c-4.26-0.4-8.36-0.99-12.29-1.6c-0.91-0.14-1.81-0.28-2.71-0.42
			C75.66,402.3,75.52,401.4,75.38,400.49z M56.75,401.36c3.28,0.23,6.74,0.64,10.34,1.18c2.6,0.38,5.29,0.83,8.07,1.29
			c0.46,2.78,0.91,5.47,1.29,8.07c0.54,3.6,0.94,7.05,1.18,10.34c0.22,3.29,0.27,6.4,0.08,9.33c-0.15,2.41-0.44,4.68-0.85,6.8
			c-0.06-0.07-0.13-0.17-0.22-0.28c-0.24-0.3-0.58-0.75-1.03-1.29c-0.45-0.55-0.99-1.23-1.63-1.97c-0.64-0.76-1.36-1.61-2.17-2.52
			c-0.8-0.91-1.66-1.9-2.6-2.93c-0.93-1.03-1.93-2.11-2.96-3.21c-1.04-1.11-2.12-2.24-3.23-3.38c-1.1-1.15-2.24-2.29-3.38-3.44
			c-1.15-1.14-2.29-2.28-3.44-3.38c-1.14-1.11-2.28-2.19-3.38-3.23c-1.1-1.04-2.18-2.03-3.21-2.97c-1.03-0.93-2.02-1.8-2.94-2.6
			c-0.91-0.8-1.76-1.53-2.52-2.16c-0.75-0.64-1.42-1.18-1.98-1.63c-0.55-0.45-0.99-0.79-1.29-1.03c-0.11-0.09-0.2-0.16-0.27-0.21
			c2.12-0.41,4.39-0.7,6.8-0.85C50.35,401.09,53.46,401.14,56.75,401.36z"/>
		<path style="opacity:0.6;clip-path:url(#SVGID_00000050627818742664838330000008526474556421764236_);fill:#FFFFFF;" d="
			M210.1,325.25l0.3,0.36c0.64,0.69,1.38,1.3,2.23,1.78c3.6,2.09,8.01,1.51,10.97-1.1l14.18,15.24c-0.43,0.43-0.82,0.92-1.14,1.47
			c-1.96,3.39-0.8,7.74,2.59,9.7c3.39,1.96,7.73,0.81,9.69-2.59c1.97-3.39,0.81-7.73-2.59-9.69c-2.7-1.56-5.99-1.14-8.21,0.8
			l-14.2-15.24c0.6-0.58,1.14-1.25,1.58-2.01c1.4-2.41,1.59-5.17,0.8-7.62l-0.14-0.45c-0.75-1.96-2.14-3.68-4.09-4.81
			c-0.23-0.13-0.47-0.26-0.72-0.36l2.02-4.62c1.57,0.56,3.37-0.05,4.23-1.54c0.97-1.67,0.4-3.82-1.28-4.79
			c-1.68-0.97-3.82-0.39-4.79,1.28c-0.97,1.68-0.39,3.83,1.29,4.79c0.04,0.03,0.09,0.05,0.14,0.08l-2.03,4.62
			c-1.75-0.72-3.63-0.88-5.41-0.52l-13.41-58.93c1.8-0.49,3.4-1.66,4.41-3.4c0.24-0.42,0.43-0.85,0.58-1.29l12.96,3.97
			c-0.62,2.37,0.38,4.95,2.6,6.23c1.27,0.73,2.69,0.91,4.01,0.61l2.97,12.09c-0.7,0.2-1.33,0.66-1.72,1.34
			c-0.79,1.38-0.32,3.17,1.07,3.97c1.39,0.8,3.17,0.33,3.97-1.06c0.79-1.39,0.33-3.17-1.07-3.98c-0.64-0.36-1.36-0.46-2.03-0.32
			l-2.97-12.08c1.38-0.37,2.62-1.27,3.39-2.6c0.44-0.75,0.67-1.57,0.73-2.39l22.41,1.15c0.01,0.74,0.38,1.46,1.07,1.86
			c1.04,0.6,2.35,0.25,2.96-0.79c0.6-1.03,0.24-2.36-0.79-2.95c-1.03-0.6-2.36-0.25-2.95,0.78c-0.17,0.27-0.25,0.56-0.28,0.86
			l-22.4-1.14c0.06-1.98-0.95-3.93-2.78-5c-2.67-1.54-6.08-0.64-7.62,2.03c-0.18,0.3-0.32,0.62-0.44,0.94l-12.95-3.97
			c0.36-1.31,0.34-2.67-0.02-3.95l80.43-26.91c0.66,1.69,1.88,3.19,3.58,4.17c1.14,0.66,2.36,1.01,3.6,1.09l-2,37.1
			c-1.61,0-3.17,0.83-4.03,2.31c-1.29,2.22-0.52,5.05,1.69,6.33c2.21,1.29,5.05,0.53,6.33-1.69c1.28-2.22,0.53-5.05-1.69-6.33
			c-0.57-0.34-1.2-0.53-1.84-0.59l2.01-37.11c2.92,0.04,5.77-1.45,7.34-4.16c0.57-0.99,0.92-2.05,1.06-3.12l11.7,1.09
			c-0.12,2.22,0.97,4.43,3.03,5.62c1.25,0.72,2.64,0.95,3.95,0.75l1.65,9.89c-0.54,0.12-1.04,0.46-1.34,0.97
			c-0.58,0.99-0.24,2.25,0.75,2.83c0.99,0.57,2.25,0.23,2.83-0.76c0.57-0.99,0.23-2.25-0.75-2.82c-0.4-0.22-0.84-0.3-1.26-0.26
			l-1.64-9.88c1.69-0.32,3.23-1.33,4.17-2.94c0.78-1.35,0.98-2.86,0.69-4.28l15.95-3.58c0.15,0.52,0.49,0.99,0.99,1.28
			c1.03,0.59,2.34,0.24,2.95-0.79c0.59-1.03,0.24-2.34-0.79-2.93c-1.03-0.6-2.34-0.25-2.93,0.78c-0.26,0.45-0.33,0.95-0.25,1.43
			l-15.96,3.59c-0.38-1.56-1.37-2.97-2.87-3.84c-2.92-1.68-6.65-0.7-8.34,2.22c-0.42,0.72-0.67,1.49-0.77,2.26l-11.7-1.09
			c0.2-2.92-1.14-5.84-3.72-7.54l21.3-36.81c1.58,0.78,3.31,0.98,4.93,0.65l1.02,4.71c-0.56,0.15-1.05,0.51-1.37,1.04
			c-0.62,1.08-0.25,2.45,0.83,3.07c1.07,0.62,2.44,0.27,3.07-0.81c0.62-1.08,0.25-2.45-0.81-3.08c-0.48-0.27-1-0.34-1.49-0.25
			l-1.02-4.72c1.9-0.44,3.62-1.6,4.74-3.36l37.87,21.82c-1.25,2.42-0.41,5.44,1.99,6.82c0.77,0.45,1.62,0.67,2.45,0.69l-0.03,11.1
			c-0.73,0.02-1.44,0.42-1.84,1.11c-0.62,1.07-0.26,2.45,0.82,3.07c1.08,0.62,2.45,0.25,3.07-0.82c0.62-1.08,0.26-2.46-0.82-3.07
			c-0.31-0.19-0.66-0.28-1-0.29l0.02-11.12c1.75-0.04,3.42-0.94,4.35-2.56c1.42-2.47,0.58-5.61-1.88-7.03
			c-2.39-1.39-5.44-0.62-6.91,1.69l-37.87-21.81c0.88-1.57,1.15-3.34,0.87-5l30.8-6.79c0.33,1.24,1.13,2.35,2.33,3.04
			c2.4,1.39,5.46,0.56,6.85-1.83c0.28-0.49,0.47-1,0.57-1.52l25.23,4.51c-0.1,0.81,0.28,1.63,1.03,2.07
			c1.01,0.58,2.29,0.24,2.87-0.77c0.58-1,0.24-2.29-0.76-2.87c-1.01-0.58-2.29-0.24-2.88,0.77c-0.11,0.18-0.17,0.37-0.21,0.57
			l-25.24-4.51c0.31-1.98-0.6-4.04-2.44-5.1c-2.4-1.4-5.47-0.57-6.85,1.83c-0.62,1.06-0.8,2.25-0.61,3.36l-30.79,6.79
			c-0.46-2.01-1.72-3.82-3.64-4.93c-1.56-0.91-3.3-1.19-4.96-0.95l-7.63-42.64c1.59-0.33,3.07-1.19,4.16-2.5l11.34,8.9
			c-0.07,0.1-0.14,0.2-0.2,0.31c-1.17,2.02-0.48,4.6,1.54,5.76c2.02,1.17,4.6,0.48,5.77-1.53c1.17-2.02,0.48-4.6-1.54-5.78
			c-1.77-1.03-3.98-0.61-5.29,0.87l-11.34-8.9c0.16-0.21,0.31-0.44,0.45-0.68c0.75-1.29,1.06-2.73,0.99-4.12l37.15-3.21
			c0.23,1.93,1.33,3.72,3.15,4.77c1.12,0.65,2.35,0.91,3.55,0.85l0.9,10.23c-1.28,0.18-2.46,0.92-3.16,2.13
			c-1.21,2.1-0.5,4.77,1.58,5.98c2.09,1.2,4.77,0.49,5.98-1.6c1.21-2.08,0.49-4.76-1.6-5.97c-0.74-0.43-1.54-0.61-2.34-0.58
			l-0.91-10.24c1.93-0.24,3.72-1.34,4.76-3.14c0.22-0.4,0.4-0.8,0.54-1.21l31.05,9c-0.36,1.62,0.34,3.37,1.86,4.25
			c0.94,0.54,2,0.65,2.96,0.39l2.88,12.2c-0.55,0.17-1.05,0.52-1.36,1.06c-0.64,1.1-0.26,2.51,0.84,3.15
			c1.11,0.64,2.52,0.26,3.16-0.84c0.64-1.1,0.27-2.52-0.84-3.15c-0.5-0.29-1.05-0.35-1.57-0.26l-2.89-12.23
			c0.89-0.29,1.67-0.89,2.17-1.75c1.09-1.87,0.45-4.27-1.42-5.35c-1.88-1.08-4.27-0.44-5.34,1.43c-0.12,0.2-0.22,0.42-0.3,0.65
			l-31.06-9c0.48-1.92,0.05-3.95-1.14-5.49l17.91-14.94c0.36,0.4,0.8,0.76,1.3,1.05c2.59,1.51,5.94,0.62,7.44-1.99
			c0.28-0.49,0.49-1.01,0.6-1.53l24.81,4.43c-0.15,1.34,0.49,2.7,1.73,3.43c1.68,0.98,3.83,0.39,4.8-1.28
			c0.98-1.68,0.4-3.83-1.28-4.8c-1.68-0.97-3.83-0.4-4.79,1.28c-0.17,0.3-0.29,0.6-0.37,0.91l-24.8-4.43
			c0.28-2.12-0.7-4.31-2.67-5.45c-1.51-0.87-3.26-0.93-4.76-0.34l-8.8-19.5c0.55-0.29,1.05-0.74,1.39-1.33
			c0.56-0.96,0.6-2.07,0.24-3.02l38.85-17.98c0.46,0.89,1.18,1.68,2.11,2.22c2.61,1.5,5.93,0.62,7.44-1.99
			c1.51-2.59,0.62-5.94-1.98-7.45c-2.6-1.5-5.94-0.61-7.45,1.99c-0.88,1.52-0.93,3.29-0.32,4.8l-38.85,17.97
			c-0.3-0.54-0.75-1.02-1.33-1.36c-1.68-0.97-3.83-0.4-4.81,1.28c-0.97,1.68-0.39,3.84,1.29,4.82c0.95,0.54,2.05,0.6,3,0.25
			l8.8,19.49c-0.92,0.46-1.71,1.19-2.26,2.14c-1.14,1.96-0.92,4.34,0.38,6.03l-17.91,14.94c-0.43-0.49-0.95-0.92-1.56-1.27
			c-2.17-1.24-4.76-1.09-6.72,0.19L349.6,76.77c0.45-0.35,0.85-0.8,1.15-1.32c1.28-2.21,0.53-5.05-1.69-6.32
			c-2.21-1.29-5.05-0.53-6.32,1.69c-1.28,2.21-0.53,5.04,1.69,6.33c1.54,0.89,3.39,0.79,4.8-0.1l12.25,17.33
			c-0.66,0.5-1.23,1.14-1.67,1.9c-0.64,1.12-0.91,2.34-0.85,3.53l-37.15,3.21c-0.27-2.24-1.54-4.34-3.65-5.56
			c-0.09-0.05-0.19-0.09-0.28-0.14l1.66-3.31c1.04,0.46,2.27,0.08,2.85-0.92c0.62-1.08,0.26-2.44-0.82-3.07
			c-1.07-0.62-2.45-0.26-3.07,0.82c-0.61,1.07-0.25,2.45,0.82,3.07c0.01,0.01,0.02,0,0.02,0.01l-1.66,3.29
			c-1.49-0.72-3.12-0.9-4.66-0.6l-4.83-21.09c0.98-0.29,1.86-0.94,2.41-1.89c1.13-1.96,0.47-4.47-1.5-5.61
			c-1.96-1.14-4.47-0.46-5.61,1.5c-1.14,1.96-0.46,4.47,1.5,5.61c0.87,0.5,1.83,0.65,2.74,0.5l4.84,21.08
			c-1.85,0.49-3.51,1.68-4.55,3.46c-0.83,1.45-1.12,3.07-0.93,4.62l-15.27,2.36c-0.21-0.99-0.84-1.9-1.78-2.45
			c-1.8-1.04-4.1-0.43-5.13,1.37c-1.04,1.8-0.43,4.1,1.37,5.14c1.8,1.04,4.1,0.42,5.13-1.37c0.41-0.7,0.55-1.47,0.49-2.23
			l15.27-2.36c0.38,2.06,1.62,3.94,3.58,5.06c1.51,0.87,3.19,1.15,4.79,0.92l7.64,42.63c-2.08,0.44-3.96,1.7-5.09,3.67
			c-0.56,0.95-0.87,1.97-0.99,2.99l-13.13-1.32c0.11-1.93-0.84-3.85-2.64-4.88c-2.53-1.47-5.77-0.6-7.24,1.93
			c-1.47,2.54-0.61,5.78,1.93,7.25c2.53,1.47,5.78,0.6,7.24-1.93c0.35-0.61,0.57-1.25,0.66-1.9l13.14,1.32
			c-0.14,2.79,1.24,5.56,3.83,7.05c0.01,0,0.02,0.01,0.02,0.02l-21.28,36.77c0-0.01,0-0.01-0.01-0.01
			c-2.68-1.55-5.86-1.44-8.35,0.01l-22.02-35.18c0.61-0.42,1.14-0.98,1.54-1.67c1.43-2.47,0.59-5.65-1.9-7.09
			c-2.48-1.43-5.65-0.59-7.09,1.89c-0.49,0.84-0.71,1.76-0.69,2.66l-19.73,0.67c-0.07-1-0.62-1.95-1.56-2.48
			c-1.5-0.87-3.42-0.36-4.28,1.14c-0.61,1.06-0.53,2.32,0.09,3.28l-19.01,13.4c-0.15-0.2-0.34-0.36-0.56-0.5
			c-0.96-0.55-2.2-0.23-2.75,0.74c-0.56,0.96-0.23,2.2,0.73,2.76c0.96,0.56,2.2,0.23,2.75-0.74c0.39-0.66,0.35-1.46-0.04-2.07
			l19.02-13.4c0.25,0.32,0.55,0.6,0.92,0.81c0.71,0.41,1.52,0.51,2.26,0.34l1.87,7.01c-0.5,0.17-0.97,0.51-1.26,1.01
			c-0.62,1.07-0.25,2.45,0.82,3.07c1.08,0.63,2.46,0.25,3.08-0.82c0.62-1.08,0.25-2.45-0.82-3.07c-0.5-0.29-1.07-0.36-1.6-0.25
			l-1.87-7.01c0.73-0.23,1.38-0.71,1.79-1.42c0.29-0.5,0.42-1.04,0.42-1.57l19.73-0.68c0.1,1.69,1.02,3.3,2.59,4.2
			c1.64,0.96,3.6,0.9,5.14,0.02l22.03,35.18c-1.05,0.69-1.97,1.62-2.65,2.79c-0.43,0.76-0.73,1.55-0.92,2.36l-27.72-5.5
			c0.16-1.25-0.43-2.54-1.59-3.21c-1.55-0.89-3.53-0.37-4.43,1.18c-0.89,1.55-0.37,3.53,1.18,4.43c1.55,0.89,3.53,0.37,4.43-1.18
			c0.14-0.25,0.25-0.51,0.32-0.76l27.74,5.5c-0.22,1.34-0.11,2.69,0.3,3.96l-80.41,26.9c-0.57-1.59-1.67-3-3.24-3.9
			c-0.49-0.28-0.99-0.49-1.52-0.65l1.43-5.39c1.01,0.17,2.05-0.27,2.59-1.21c0.7-1.19,0.29-2.73-0.91-3.42
			c-1.19-0.69-2.73-0.28-3.43,0.92c-0.68,1.2-0.28,2.73,0.92,3.42c0.12,0.07,0.26,0.13,0.39,0.17l-1.43,5.38
			c-1.98-0.47-4.04-0.1-5.72,0.99l-11.92-17.05c0.47-0.36,0.87-0.81,1.19-1.35c1.29-2.25,0.53-5.12-1.71-6.42
			c-2.25-1.3-5.13-0.53-6.42,1.71c-1.31,2.25-0.53,5.12,1.71,6.42c1.56,0.9,3.43,0.81,4.85-0.09l11.92,17.04
			c-0.77,0.59-1.45,1.33-1.97,2.21c-1.33,2.31-1.27,5.03-0.08,7.21l-10.39,6.01c-0.38-0.6-0.91-1.12-1.57-1.5
			c-2.23-1.29-5.07-0.53-6.36,1.7c-1.28,2.22-0.53,5.07,1.7,6.36c2.23,1.29,5.07,0.53,6.36-1.7c0.82-1.43,0.81-3.1,0.11-4.47
			l10.39-6.01c0.61,0.97,1.46,1.82,2.52,2.43c1.63,0.94,3.47,1.18,5.18,0.82l13.41,58.92c-2.39,0.6-4.54,2.12-5.87,4.42
			c-0.36,0.62-0.63,1.26-0.84,1.91l-25.59-7.36c0.47-2.02-0.4-4.2-2.29-5.29c-1.02-0.59-2.16-0.77-3.23-0.59l-1.85-9.49
			c0.84-0.19,1.59-0.71,2.05-1.51c0.88-1.54,0.36-3.5-1.17-4.39c-1.54-0.88-3.49-0.36-4.38,1.18c-0.89,1.53-0.36,3.49,1.17,4.38
			c0.66,0.38,1.4,0.5,2.1,0.39l1.84,9.49c-1.27,0.27-2.44,1.07-3.14,2.29c-1.19,2.06-0.7,4.63,1.05,6.11l-3,3.7
			c-0.07-0.05-0.12-0.11-0.2-0.16c-1.13-0.65-2.57-0.26-3.22,0.86c-0.65,1.13-0.27,2.57,0.86,3.21c1.12,0.66,2.56,0.27,3.21-0.85
			c0.57-0.99,0.35-2.21-0.47-2.93l2.99-3.68c0.16,0.13,0.34,0.25,0.52,0.36c2.31,1.34,5.27,0.55,6.61-1.76
			c0.17-0.28,0.29-0.57,0.39-0.87l25.6,7.35C207.47,319.8,208.19,322.93,210.1,325.25z"/>
		<path style="clip-path:url(#SVGID_00000050627818742664838330000008526474556421764236_);fill:#5499BA;" d="M445.33,34.79
			c-0.98-0.65-2.3-0.37-2.95,0.61c-0.57,0.87-0.43,1.98,0.27,2.68l-2.89,3.17c-0.14-0.12-0.3-0.24-0.45-0.35
			c-2.02-1.33-4.74-0.76-6.06,1.26c-0.17,0.25-0.29,0.5-0.4,0.76l-22.76-7.93c0.83-2.62,0.35-5.48-1.27-7.67l-0.25-0.34
			c-0.54-0.65-1.18-1.24-1.93-1.72c-3.15-2.07-7.16-1.77-9.97,0.45l-0.31,0.27c-0.58,0.49-1.09,1.07-1.53,1.73
			c-1.38,2.1-1.7,4.6-1.1,6.85l-25.67,7.52c-0.33-0.99-0.99-1.88-1.92-2.5c-2.25-1.46-5.25-0.84-6.72,1.4
			c-1.47,2.24-0.84,5.25,1.4,6.71c2.24,1.47,5.24,0.84,6.71-1.4c0.77-1.17,0.96-2.55,0.65-3.82l25.66-7.5
			c0.57,1.8,1.74,3.43,3.45,4.56c0.21,0.13,0.41,0.25,0.63,0.36l-2.06,4.07c-1.39-0.59-3.05-0.12-3.9,1.18
			c-0.96,1.46-0.55,3.43,0.92,4.39c1.46,0.96,3.43,0.55,4.39-0.92c0.96-1.47,0.55-3.43-0.92-4.39c-0.04-0.03-0.08-0.05-0.12-0.08
			l2.07-4.07c1.55,0.74,3.23,0.98,4.86,0.74l9.15,53.92c-1.65,0.36-3.16,1.33-4.16,2.85c-0.25,0.37-0.44,0.74-0.6,1.14l-11.51-4.24
			c0.68-2.11-0.09-4.49-2.03-5.76c-1.11-0.72-2.39-0.95-3.6-0.75l-2.07-11.08c0.64-0.14,1.23-0.52,1.62-1.12
			c0.79-1.21,0.45-2.84-0.76-3.64c-1.21-0.79-2.84-0.46-3.64,0.76c-0.79,1.22-0.46,2.85,0.76,3.65c0.56,0.36,1.21,0.48,1.82,0.4
			L390.21,88c-1.27,0.27-2.43,1.01-3.2,2.18c-0.43,0.66-0.68,1.39-0.78,2.12l-20.19-2.17c0.03-0.67-0.27-1.34-0.88-1.74
			c-0.9-0.59-2.11-0.34-2.71,0.57c-0.59,0.9-0.34,2.12,0.57,2.7c0.9,0.59,2.12,0.34,2.71-0.56c0.16-0.23,0.25-0.5,0.29-0.76
			l20.18,2.16c-0.15,1.79,0.66,3.6,2.26,4.66c2.34,1.53,5.46,0.88,6.99-1.46c0.18-0.26,0.32-0.54,0.44-0.82l11.51,4.23
			c-0.39,1.17-0.45,2.4-0.18,3.57l-74.03,20.26c-0.52-1.57-1.54-2.98-3.02-3.95c-0.99-0.65-2.09-1.03-3.2-1.17l3.68-33.42
			c1.45,0.08,2.9-0.59,3.76-1.89c1.28-1.94,0.73-4.54-1.21-5.81c-1.93-1.27-4.54-0.73-5.8,1.21c-1.27,1.94-0.73,4.53,1.21,5.81
			c0.5,0.34,1.06,0.54,1.64,0.63l-3.69,33.43c-2.63-0.18-5.28,1.02-6.84,3.39c-0.56,0.86-0.93,1.81-1.11,2.77l-10.51-1.58
			c0.22-2-0.66-4.05-2.46-5.23c-1.08-0.71-2.33-0.99-3.53-0.88l-0.99-9.02c0.5-0.08,0.96-0.36,1.26-0.81
			c0.57-0.86,0.33-2.02-0.53-2.59c-0.87-0.56-2.02-0.32-2.59,0.54c-0.56,0.86-0.33,2.02,0.54,2.59c0.35,0.22,0.74,0.31,1.12,0.29
			l0.99,9.01c-1.54,0.2-2.99,1.04-3.91,2.45c-0.78,1.18-1.02,2.54-0.84,3.83L282.56,125c-0.11-0.48-0.39-0.92-0.83-1.21
			c-0.9-0.58-2.1-0.33-2.7,0.56c-0.59,0.9-0.33,2.1,0.57,2.69c0.9,0.59,2.1,0.34,2.69-0.56c0.26-0.39,0.34-0.84,0.3-1.27l14.6-2.44
			c0.27,1.43,1.09,2.75,2.39,3.61c2.56,1.67,5.98,0.96,7.65-1.59c0.41-0.63,0.68-1.31,0.81-2.01l10.51,1.58
			c-0.33,2.63,0.74,5.34,2.99,7l-21.1,32.19c-1.38-0.79-2.94-1.06-4.42-0.84l-0.68-4.31c0.51-0.1,0.98-0.41,1.28-0.87
			c0.61-0.95,0.36-2.2-0.59-2.82c-0.93-0.61-2.19-0.36-2.81,0.58c-0.62,0.94-0.35,2.2,0.58,2.82c0.42,0.27,0.89,0.35,1.33,0.31
			l0.68,4.31c-1.73,0.31-3.35,1.27-4.45,2.8l-33.12-21.62c1.26-2.12,0.64-4.89-1.45-6.26c-0.68-0.44-1.43-0.68-2.18-0.74l0.58-10.04
			c0.66,0.02,1.32-0.31,1.71-0.91c0.61-0.94,0.35-2.2-0.58-2.82c-0.94-0.61-2.2-0.35-2.82,0.58c-0.61,0.95-0.36,2.21,0.58,2.82
			c0.28,0.18,0.58,0.28,0.89,0.32l-0.58,10.04c-1.57-0.05-3.13,0.68-4.06,2.09c-1.41,2.16-0.81,5.04,1.35,6.45
			c2.09,1.38,4.88,0.84,6.33-1.18l33.12,21.61c-0.87,1.38-1.21,2.96-1.04,4.48l-28.17,4.58c-0.23-1.14-0.9-2.18-1.95-2.86
			c-2.1-1.38-4.91-0.79-6.28,1.31c-0.28,0.43-0.47,0.88-0.59,1.34l-22.57-5.35c0.13-0.72-0.17-1.49-0.82-1.92
			c-0.88-0.57-2.05-0.33-2.63,0.55c-0.58,0.87-0.33,2.06,0.55,2.63c0.88,0.57,2.06,0.33,2.63-0.55c0.1-0.16,0.17-0.33,0.22-0.5
			l22.57,5.35c-0.38,1.77,0.34,3.68,1.95,4.74c2.09,1.38,4.91,0.79,6.28-1.31c0.61-0.92,0.83-1.99,0.72-3.01l28.16-4.58
			c0.32,1.84,1.36,3.55,3.04,4.64c1.36,0.89,2.92,1.24,4.43,1.1l4.74,38.91c-1.45,0.22-2.83,0.92-3.89,2.05l-9.79-8.62
			c0.06-0.09,0.13-0.18,0.19-0.27c1.16-1.76,0.66-4.12-1.1-5.28c-1.77-1.16-4.13-0.67-5.29,1.1c-1.16,1.77-0.66,4.14,1.1,5.29
			c1.55,1.02,3.57,0.76,4.82-0.52l9.8,8.62c-0.16,0.18-0.31,0.38-0.44,0.59c-0.74,1.13-1.1,2.41-1.1,3.67l-33.73,1.03
			c-0.11-1.76-1.02-3.43-2.6-4.47c-0.97-0.64-2.08-0.94-3.16-0.95l-0.29-9.29c1.17-0.1,2.27-0.71,2.96-1.76
			c1.2-1.84,0.69-4.28-1.13-5.48c-1.83-1.19-4.28-0.69-5.48,1.14c-1.2,1.82-0.68,4.27,1.14,5.47c0.64,0.42,1.37,0.62,2.08,0.64
			l0.3,9.3c-1.75,0.12-3.43,1.02-4.46,2.6c-0.22,0.35-0.41,0.7-0.54,1.07l-27.6-9.7c0.4-1.44-0.14-3.06-1.47-3.93
			c-0.82-0.53-1.77-0.68-2.66-0.51l-1.98-11.17c0.5-0.13,0.97-0.42,1.28-0.89c0.63-0.97,0.36-2.26-0.6-2.89
			c-0.97-0.63-2.26-0.36-2.89,0.6c-0.63,0.97-0.37,2.26,0.6,2.89c0.43,0.28,0.93,0.37,1.4,0.32l2,11.2
			c-0.81,0.21-1.55,0.72-2.05,1.46c-1.07,1.64-0.62,3.83,1.02,4.91c1.64,1.07,3.83,0.61,4.9-1.02c0.12-0.18,0.23-0.37,0.3-0.57
			l27.62,9.7c-0.53,1.71-0.25,3.56,0.75,5.02l-16.94,12.6c-0.31-0.38-0.69-0.73-1.12-1.02c-2.27-1.49-5.33-0.86-6.83,1.42
			c-0.28,0.43-0.48,0.89-0.62,1.36l-22.19-5.26c0.21-1.2-0.3-2.46-1.38-3.18c-1.47-0.97-3.45-0.55-4.4,0.91
			c-0.97,1.47-0.56,3.45,0.91,4.4c1.46,0.96,3.44,0.55,4.39-0.91c0.17-0.26,0.3-0.53,0.38-0.81l22.19,5.25
			c-0.37,1.9,0.41,3.93,2.14,5.06c1.32,0.86,2.9,1,4.28,0.54l6.97,18.06c-0.51,0.23-0.99,0.62-1.32,1.13
			c-0.55,0.84-0.65,1.85-0.37,2.72l-36.01,14.29c-0.37-0.83-0.98-1.58-1.8-2.12c-2.27-1.49-5.33-0.85-6.82,1.42
			c-1.5,2.27-0.86,5.34,1.42,6.83c2.27,1.49,5.33,0.85,6.82-1.42c0.87-1.33,1.01-2.93,0.53-4.33l36.01-14.28
			c0.25,0.51,0.62,0.96,1.13,1.29c1.47,0.97,3.45,0.55,4.41-0.91c0.96-1.47,0.55-3.45-0.92-4.41c-0.83-0.54-1.82-0.65-2.7-0.38
			l-6.97-18.05c0.85-0.37,1.61-0.98,2.15-1.82c1.13-1.71,1.04-3.87-0.05-5.46l16.94-12.59c0.37,0.46,0.81,0.88,1.34,1.22
			c1.9,1.23,4.25,1.23,6.08,0.18l10.19,16.29c-0.42,0.29-0.81,0.68-1.11,1.13c-1.27,1.94-0.73,4.53,1.21,5.8
			c1.93,1.28,4.53,0.74,5.8-1.2c1.27-1.94,0.73-4.53-1.21-5.8c-1.35-0.89-3.02-0.89-4.34-0.15l-10.19-16.28
			c0.62-0.42,1.16-0.97,1.6-1.63c0.64-0.97,0.94-2.07,0.95-3.15l33.72-1.03c0.13,2.04,1.18,4,3.02,5.21
			c0.08,0.05,0.17,0.09,0.25,0.14l-1.66,2.91c-0.92-0.47-2.05-0.18-2.62,0.69c-0.61,0.94-0.35,2.19,0.59,2.81
			c0.94,0.62,2.2,0.36,2.82-0.58c0.61-0.94,0.36-2.2-0.58-2.81c-0.01-0.01-0.01,0-0.02-0.01l1.66-2.89
			c1.32,0.73,2.78,0.97,4.19,0.78l3.3,19.29c-0.9,0.21-1.73,0.75-2.27,1.59c-1.12,1.72-0.64,4.01,1.07,5.14
			c1.72,1.13,4.02,0.64,5.14-1.07c1.12-1.72,0.64-4.02-1.07-5.14c-0.76-0.49-1.62-0.68-2.45-0.58l-3.31-19.29
			c1.69-0.34,3.26-1.34,4.29-2.9c0.82-1.27,1.17-2.72,1.08-4.13l13.92-1.36c0.14,0.91,0.66,1.76,1.49,2.3
			c1.57,1.02,3.68,0.59,4.71-0.98c1.02-1.57,0.59-3.68-0.98-4.71c-1.57-1.03-3.68-0.59-4.71,0.98c-0.4,0.61-0.57,1.3-0.55,1.98
			l-13.92,1.36c-0.24-1.88-1.26-3.65-2.97-4.75c-1.32-0.87-2.83-1.2-4.28-1.08l-4.75-38.9c1.9-0.29,3.66-1.33,4.78-3.05
			c0.55-0.84,0.89-1.74,1.04-2.66l11.8,1.85c-0.2,1.74,0.56,3.53,2.13,4.55c2.21,1.46,5.19,0.83,6.64-1.38
			c1.46-2.22,0.84-5.19-1.38-6.64c-2.21-1.45-5.19-0.83-6.64,1.38c-0.35,0.53-0.58,1.1-0.69,1.68l-11.8-1.86
			c0.27-2.51-0.84-5.08-3.1-6.56c-0.01,0-0.02-0.01-0.02-0.01l21.07-32.15c0,0.01,0,0.01,0.02,0.01c2.34,1.54,5.22,1.6,7.55,0.41
			l18.12,32.89c-0.58,0.35-1.09,0.83-1.48,1.43c-1.42,2.16-0.82,5.08,1.35,6.5c2.17,1.42,5.08,0.82,6.5-1.35
			c0.48-0.74,0.73-1.55,0.76-2.37l17.86,0.39c0.01,0.9,0.46,1.79,1.29,2.32c1.31,0.86,3.07,0.49,3.93-0.81
			c0.61-0.93,0.6-2.07,0.08-2.97l17.85-11.15c0.13,0.18,0.29,0.35,0.48,0.48c0.84,0.55,1.97,0.32,2.53-0.53
			c0.55-0.84,0.32-1.98-0.52-2.53c-0.84-0.55-1.98-0.32-2.53,0.53c-0.38,0.58-0.39,1.3-0.07,1.87l-17.86,11.15
			c-0.21-0.31-0.47-0.57-0.8-0.78c-0.62-0.41-1.34-0.54-2.02-0.42l-1.34-6.43c0.46-0.13,0.9-0.41,1.19-0.85
			c0.61-0.94,0.35-2.2-0.59-2.82c-0.94-0.62-2.2-0.35-2.83,0.59c-0.61,0.94-0.35,2.2,0.59,2.81c0.45,0.29,0.95,0.38,1.43,0.3
			l1.34,6.43c-0.67,0.17-1.29,0.57-1.69,1.19c-0.28,0.43-0.43,0.91-0.46,1.39l-17.86-0.38c-0.01-1.53-0.76-3.03-2.13-3.92
			c-1.44-0.95-3.21-0.99-4.65-0.28l-18.13-32.9c0.99-0.57,1.86-1.36,2.54-2.38c0.43-0.66,0.74-1.36,0.94-2.09l24.77,6.36
			c-0.2,1.12,0.26,2.31,1.28,2.98c1.35,0.89,3.17,0.51,4.06-0.84c0.89-1.36,0.51-3.17-0.84-4.06c-1.36-0.89-3.18-0.51-4.06,0.84
			c-0.14,0.22-0.25,0.45-0.33,0.68l-24.78-6.36c0.27-1.2,0.23-2.43-0.08-3.6l74.01-20.26c0.43,1.46,1.36,2.79,2.74,3.69
			c0.43,0.28,0.87,0.5,1.34,0.67l-1.57,4.8c-0.9-0.2-1.87,0.14-2.4,0.96c-0.69,1.04-0.4,2.45,0.65,3.14
			c1.05,0.68,2.45,0.39,3.14-0.66c0.67-1.05,0.39-2.45-0.66-3.14c-0.11-0.07-0.23-0.13-0.34-0.18l1.56-4.79
			c1.76,0.53,3.64,0.29,5.21-0.6l9.91,16.01c-0.44,0.3-0.83,0.69-1.14,1.17c-1.28,1.96-0.74,4.6,1.22,5.89
			c1.97,1.28,4.61,0.74,5.89-1.22c1.29-1.97,0.73-4.6-1.22-5.89c-1.37-0.89-3.06-0.9-4.39-0.16l-9.91-16
			c0.73-0.49,1.38-1.13,1.89-1.9c1.32-2.02,1.4-4.48,0.43-6.51l9.68-4.91c0.32,0.56,0.77,1.06,1.35,1.43
			c1.95,1.28,4.56,0.73,5.84-1.21c1.27-1.95,0.73-4.56-1.22-5.83c-1.95-1.28-4.56-0.73-5.83,1.21c-0.82,1.25-0.89,2.76-0.32,4.03
			L419.51,98c-0.51-0.91-1.23-1.72-2.15-2.33c-1.43-0.93-3.08-1.24-4.63-1.01l-9.14-53.91c2.19-0.42,4.21-1.69,5.53-3.7
			c0.35-0.54,0.63-1.1,0.85-1.68l22.75,7.94c-0.53,1.8,0.15,3.82,1.8,4.9c0.89,0.58,1.91,0.81,2.89,0.69l1.2,8.66
			c-0.76,0.13-1.47,0.57-1.93,1.26c-0.87,1.34-0.5,3.14,0.84,4.02c1.34,0.88,3.14,0.5,4.02-0.84c0.87-1.34,0.5-3.14-0.84-4.01
			c-0.58-0.38-1.24-0.53-1.88-0.46l-1.19-8.67c1.17-0.19,2.26-0.84,2.96-1.91c1.18-1.81,0.86-4.15-0.64-5.57l2.89-3.19
			c0.06,0.05,0.1,0.11,0.17,0.15c0.99,0.65,2.31,0.37,2.95-0.61C446.59,36.75,446.31,35.43,445.33,34.79z"/>
	</g>
</g>
</svg>
